<?xml version="1.0" standalone="no"?>
<!DOCTYPE svg PUBLIC "-//W3C//DTD SVG 1.1//EN" "http://www.w3.org/Graphics/SVG/1.1/DTD/svg11.dtd" >
<svg>
<metadata>
Created by FontForge 20090914 at Thu Jun 16 09:16:07 2016
 By www-data
Copyrighted (c) 1981, 1997 by and the property of Linotype-Hell AG and/or its subsidiaries. All Rights Reserved. All Cyrillic characters designed by DoubleAlex. Helvetica is a registered Trademark of Linotype-Hell AG and/or its subsidiaries.
</metadata>
<defs>
<font id="Helvetica-7-Bold" horiz-adv-x="1138" >
  <font-face 
    font-family="Helvetica-7-Bold"
    font-weight="700"
    font-stretch="normal"
    units-per-em="2048"
    panose-1="2 0 8 3 0 0 0 0 0 0"
    ascent="1638"
    descent="-410"
    x-height="1057"
    cap-height="1458"
    bbox="-98 -438 2228 1851"
    underline-thickness="102"
    underline-position="-205"
    unicode-range="U+0020-U+2265"
  />
<missing-glyph horiz-adv-x="1000" 
 />
    <glyph glyph-name=".notdef" horiz-adv-x="1000" 
 />
    <glyph glyph-name="space" unicode=" " horiz-adv-x="569" 
 />
    <glyph glyph-name="exclam" unicode="!" horiz-adv-x="569" 
d="M436 1458v-389l-80 -625h-145l-80 621v393h305zM442 313v-313h-317v313h317z" />
    <glyph glyph-name="quotedbl" unicode="&#x22;" horiz-adv-x="948" 
d="M365 821h-142l-39 600h217zM725 821h-139l-39 600h217z" />
    <glyph glyph-name="numbersign" unicode="#" 
d="M322 0h-209l75 393h-182v172h215l53 289h-180v174h213l76 393h209l-76 -393h223l76 393h209l-76 -393h182v-174h-215l-53 -289h180v-172h-213l-75 -393h-209l76 393h-226zM653 565l54 289h-224l-53 -289h223z" />
    <glyph glyph-name="dollar" unicode="$" 
d="M623 1616l-0.00195312 -156.002c146.667 -3.33301 261.834 -40.166 345.501 -110.499s125.5 -165.833 125.5 -286.5v-29h-273v15c0 64 -16.667 112.167 -50 144.5s-82.666 52.166 -147.999 59.499v-395l12 -2c54.667 -8.66699 104.334 -19.334 149.001 -32.001
s89.834 -30.667 135.501 -54s84 -50.166 115 -80.499s56.167 -68.666 75.5 -114.999s29 -98.5 29 -156.5c0 -134 -47.333 -242.5 -142 -325.5s-219.334 -125.5 -374.001 -127.5v-172h-111v172c-74.667 1.33301 -143.5 12.333 -206.5 33s-118.333 50.5 -166 89.5
s-84.834 89 -111.501 150s-40 129.833 -40 206.5l2 13h291v-19c0 -156 77 -240 231 -252v437c-53.333 9.33301 -101 19.833 -143 31.5s-84.833 28.167 -128.5 49.5s-80 46.333 -109 75s-52.667 64.834 -71 108.501s-27.5 93.167 -27.5 148.5c0 70 12.667 131.667 38 185
s60.666 96.333 105.999 129s95.833 58 151.5 76s116.834 29.333 183.501 34v156h111zM511.998 882.998v368.001c-65.333 -2.66699 -116.5 -20.334 -153.5 -53.001s-55.5 -75.667 -55.5 -129c0 -30 5 -55.667 15 -77s26.667 -39 50 -53s43 -24 59 -30s41 -13.667 75 -23
c4.66699 -1.33301 8 -2.33301 10 -3zM622.998 597.999v-414.001c68.667 2 123.667 22.333 165 61s62 88.667 62 150c0 54.667 -18.333 98.334 -55 131.001s-94 56.667 -172 72z" />
    <glyph glyph-name="percent" unicode="%" horiz-adv-x="2048" 
d="M1509 1475l-804 -1530h-183l807 1530h180zM504 1446c110.667 0 195.333 -33.168 254 -99.501s88 -162.166 88 -287.499c0 -132.667 -29.167 -234.167 -87.5 -304.5s-142.5 -105.5 -252.5 -105.5c-111.333 0 -196.833 34.5 -256.5 103.5s-89.5 167.833 -89.5 296.5
c0 126.667 30 224.5 90 293.5s144.667 103.5 254 103.5zM501.999 1296c-46 0 -79.666 -20.6709 -100.999 -62.0039s-32 -106.666 -32 -195.999c0 -86 10.167 -147.667 30.5 -185s53.833 -56 100.5 -56c48 0 82.5 20.667 103.5 62s31.5 108 31.5 200
c0 20.667 -0.333008 37.834 -1 51.501s-2.16699 30.834 -4.5 51.501s-6.5 38 -12.5 52s-13.667 27.833 -23 41.5s-21.833 23.834 -37.5 30.501s-33.834 10 -54.501 10zM1556 767.995c110.667 0 195.332 -33.168 253.999 -99.501s88 -162.166 88 -287.499
c0 -132.667 -29.167 -234.167 -87.5 -304.5s-142.166 -105.5 -251.499 -105.5c-111.333 0 -197 34.5 -257 103.5s-90 167.833 -90 296.5c0 126.667 30 224.5 90 293.5s144.667 103.5 254 103.5zM1554 617.994c-46 0 -79.665 -20.667 -100.998 -62s-32 -106.666 -32 -195.999
c0 -86 10.167 -147.667 30.5 -185s53.833 -56 100.5 -56c48 0 82.667 20.667 104 62s32 108 32 200c0 20 -0.333008 37.167 -1 51.5s-2.33398 31.666 -5.00098 51.999s-7 37.5 -13 51.5s-13.667 27.667 -23 41s-21.833 23.5 -37.5 30.5s-33.834 10.5 -54.501 10.5z" />
    <glyph glyph-name="ampersand" unicode="&#x26;" horiz-adv-x="1402" 
d="M1272 705c-15.333 -144.667 -61.6689 -264.334 -139.002 -359.001l297 -346h-355l-121 143c-51.333 -56 -112.666 -99 -183.999 -129s-145.666 -45 -222.999 -45c-86 0 -164.667 16.5 -236 49.5s-129.333 82.667 -174 149s-67 143.5 -67 231.5
c0 97.333 30.667 183 92 257s140.333 132.333 237 175c-48 58.667 -82.833 111.834 -104.5 159.501s-32.5 95.834 -32.5 144.501c0 99.333 37 181.166 111 245.499s168 96.5 282 96.5c109.333 0 199.833 -32.833 271.5 -98.5s107.5 -148.5 107.5 -248.5
c0 -155.333 -84.667 -278 -254 -368l189 -230c23.333 40 41 97.667 53 173h250zM636.997 934c54.667 32.667 93.501 64.667 116.501 96s34.5 67 34.5 107c0 39.333 -12.5 71.666 -37.5 96.999s-56.833 38 -95.5 38s-70.834 -12.167 -96.501 -36.5s-38.5 -54.5 -38.5 -90.5
c0 -53.333 39 -123.666 117 -210.999zM548.998 643c-68 -35.333 -117.833 -71.667 -149.5 -109s-47.5 -79.333 -47.5 -126c0 -54.667 20.167 -101.167 60.5 -139.5s89.166 -57.5 146.499 -57.5c86.667 0 167.334 42.333 242.001 127z" />
    <glyph glyph-name="quotesingle" unicode="'" horiz-adv-x="569" 
d="M352 821h-135l-43 600h221z" />
    <glyph glyph-name="parenleft" unicode="(" horiz-adv-x="606" 
d="M618 1481c-79.333 -158 -137 -309.5 -173 -454.5s-54 -304.167 -54 -477.5c0 -298.667 77.333 -603.334 232 -914.001h-246c-85.333 128 -151.333 272 -198 432s-70 318.667 -70 476c0 163.333 23 328.833 69 496.5s112.333 314.834 199 441.501h241z" />
    <glyph glyph-name="parenright" unicode=")" horiz-adv-x="606" 
d="M-8 1481h241c88 -135.333 155.5 -281 202.5 -437s70.5 -314.333 70.5 -475c0 -155.333 -23.833 -322.333 -71.5 -501s-113.167 -323 -196.5 -433h-244c81.333 166 139.5 319.667 174.5 461s52.5 300.333 52.5 477c0 158 -19.5 315.333 -58.5 472s-95.833 302 -170.5 436z
" />
    <glyph glyph-name="asterisk" unicode="*" horiz-adv-x="833" 
d="M791 1155l-242 -80l149 -201l-135 -100l-149 211l-146 -211l-137 100l152 201l-238 80l53 158l238 -90l-6 256h172l-8 -256l237 90z" />
    <glyph glyph-name="plus" unicode="+" horiz-adv-x="1228" 
d="M504 0v428h-422v207h422v428h221v-428h422v-207h-422v-428h-221z" />
    <glyph glyph-name="comma" unicode="," horiz-adv-x="569" 
d="M446 319v-260c0 -119.333 -26.167 -211.333 -78.5 -276s-133.833 -105.667 -244.5 -123v143c48 14.667 83.333 37.5 106 68.5s35.667 73.833 39 128.5h-145v319h323z" />
    <glyph glyph-name="hyphen" unicode="-" horiz-adv-x="833" 
d="M725 688v-260h-616v260h616z" />
    <glyph glyph-name="period" unicode="." horiz-adv-x="569" 
d="M446 319v-319h-323v319h323z" />
    <glyph glyph-name="slash" unicode="/" horiz-adv-x="759" 
d="M532 1493h250l-557 -1528h-252z" />
    <glyph glyph-name="zero" unicode="0" 
d="M571 1442c66.667 0 127.169 -10.166 181.502 -30.499s100.333 -48.833 138 -85.5s70.167 -78.167 97.5 -124.5s48.666 -97.833 63.999 -154.5s26.5 -112.667 33.5 -168s10.5 -112.666 10.5 -171.999c0 -227.333 -46.5 -406.166 -139.5 -536.499
s-220.833 -195.5 -383.5 -195.5c-166 0 -295.833 64.667 -389.5 194s-140.5 308.666 -140.5 537.999c0 71.333 5.16699 140.166 15.5 206.499s28.166 132.166 53.499 197.499s57.5 122 96.5 170s89.5 86.833 151.5 116.5s132.333 44.5 211 44.5zM569.002 1202
c-26 0 -49.832 -4.16406 -71.499 -12.4971s-40.167 -18.833 -55.5 -31.5s-29.166 -29.834 -41.499 -51.501s-22.333 -41.834 -30 -60.501s-14.334 -42.667 -20.001 -72s-9.66699 -53.833 -12 -73.5s-4.33301 -45.167 -6 -76.5s-2.5 -54.333 -2.5 -69v-63
c0 -163.333 19.667 -284.333 59 -363s100 -118 182 -118c158.667 0 238 165.333 238 496c0 171.333 -19.333 296.666 -58 375.999s-99.334 119 -182.001 119z" />
    <glyph glyph-name="one" unicode="1" 
d="M811 1434v-1434h-309v932h-348v215h36c216.667 0 343.667 95.667 381 287h240z" />
    <glyph glyph-name="two" unicode="2" 
d="M1081 252l0.000976562 -252h-1050c0.666992 46.667 5.16699 90.334 13.5 131.001s18.333 76.667 30 108s29 62.833 52 94.5s44.167 58.334 63.5 80.001s47 46.667 83 75s66.667 51.5 92 69.5l106 73l56 37l61.5 41c14.333 10 33.166 23.833 56.499 41.5s41.5 34 54.5 49
s26.5 32.5 40.5 52.5s24.167 41.167 30.5 63.5s9.5 45.5 9.5 69.5c0 62.667 -18.833 112.834 -56.5 150.501s-87.167 56.5 -148.5 56.5c-76 0 -132.833 -25.333 -170.5 -76s-58.5 -129 -62.5 -235h-279v30c0 162.667 47.333 292.167 142 388.5s221.667 144.5 381 144.5
c144.667 0 262 -40.5 352 -121.5s135 -186.5 135 -316.5c0 -44.667 -5.16699 -86.334 -15.5 -125.001s-23.333 -71.834 -39 -99.501s-37.5 -55.834 -65.5 -84.501s-54.5 -52.667 -79.5 -72s-57.5 -42.666 -97.5 -69.999l-75.5 -50.5l-87.5 -59l-76.5 -56.5
c-29.667 -22.667 -55.5 -45.334 -77.5 -68.001s-40.667 -45.667 -56 -69h678z" />
    <glyph glyph-name="three" unicode="3" 
d="M66 965c5.33301 148.667 51.502 265.666 138.502 350.999s205.833 128 356.5 128c141.333 0 256.166 -36.333 344.499 -109s132.5 -167.334 132.5 -284.001c0 -70 -18 -130.5 -54 -181.5s-84.667 -84.833 -146 -101.5c80 -19.333 142.333 -58.166 187 -116.499
s67 -129.5 67 -213.5c0 -136 -49.667 -247.5 -149 -334.5s-227.333 -130.5 -384 -130.5c-162.667 0 -291.667 45 -387 135s-143 211.667 -143 365v21h280c1.33301 -88 22.833 -155.833 64.5 -203.5s101.5 -71.5 179.5 -71.5c71.333 0 128.833 20 172.5 60
s65.5 92.333 65.5 157c0 38.667 -7 72.167 -21 100.5s-33.5 50.5 -58.5 66.5s-52.5 27.667 -82.5 35s-63 11 -99 11c-28 0 -51.667 -0.666992 -71 -2v205c15.333 -1.33301 31.666 -2 48.999 -2c166.667 0 250 60 250 180c0 54.667 -18.167 98.334 -54.5 131.001
s-84.5 49 -144.5 49c-68 0 -120.667 -21 -158 -63s-57 -102.667 -59 -182h-276z" />
    <glyph glyph-name="four" unicode="4" 
d="M1104 571v-241h-193v-330h-270v330h-614v268l622 840h262v-867h193zM641 571v533l-381 -533h381z" />
    <glyph glyph-name="five" unicode="5" 
d="M1008 1421v-247.001h-588l-55 -312c35.333 35.333 73.833 61 115.5 77s91.167 24 148.5 24c137.333 0 247.666 -42.833 330.999 -128.5s125 -199.167 125 -340.5c0 -150.667 -50.667 -274.5 -152 -371.5s-230.666 -145.5 -387.999 -145.5
c-150 0 -272.5 38.833 -367.5 116.5s-146.5 187.834 -154.5 330.501h286c6 -62.667 30.667 -113.5 74 -152.5s97.333 -58.5 162 -58.5c72.667 0 132.167 25.5 178.5 76.5s69.5 116.833 69.5 197.5s-22.667 145 -68 193s-106 72 -182 72c-48 0 -89 -9.33301 -123 -28
s-64.667 -49 -92 -91h-260l139 788h801z" />
    <glyph glyph-name="six" unicode="6" 
d="M1073 1061l-276.001 0.000976562c-27.333 108 -91.666 162 -192.999 162c-80 0 -142.5 -35 -187.5 -105s-73.167 -177 -84.5 -321c78.667 107.333 185 161 319 161c130.667 0 238.167 -44.333 322.5 -133s126.5 -202 126.5 -340c0.666992 -148 -47 -270 -143 -366
s-218.333 -144 -367 -144c-170 0 -302.667 62.667 -398 188s-143 299.666 -143 522.999c0 235.333 49.667 420.5 149 555.5s236 202.5 410 202.5c129.333 0 234.833 -33.5 316.5 -100.5s131.167 -161.167 148.5 -282.5zM583.999 741.001
c-65.333 0 -119.335 -25.001 -162.002 -75.001s-64 -113.667 -64 -191c0 -78 21.333 -141.5 64 -190.5s97.334 -73.5 164.001 -73.5s121.834 25.167 165.501 75.5s65.5 113.833 65.5 190.5s-22 139.834 -66 189.501s-99.667 74.5 -167 74.5z" />
    <glyph glyph-name="seven" unicode="7" 
d="M1055 1421l0.000976562 -239c-158.667 -173.333 -273.667 -351.833 -345 -535.5s-114 -399.167 -128 -646.5h-301c0 111.333 22.167 241.5 66.5 390.5s103.666 293.5 177.999 433.5s152.5 251.667 234.5 335h-684v262h979z" />
    <glyph glyph-name="eight" unicode="8" 
d="M299 762c-67.333 22.667 -119.333 59.667 -156 111s-55 113.333 -55 186c0 111.333 45.667 203.666 137 276.999s206 110 344 110c139.333 0 254.5 -36.667 345.5 -110s136.5 -165.666 136.5 -276.999c0 -72.667 -18 -134.667 -54 -186s-87.667 -88.333 -155 -111
c84 -20.667 149.667 -61.834 197 -123.501s71 -137.167 71 -226.5c0 -131.333 -49.5 -237 -148.5 -317s-229.833 -120 -392.5 -120s-293 40 -391 120s-147 185.667 -147 317c0 89.333 23.667 164.833 71 226.5s113 102.834 197 123.501zM569 1227
c-64.667 0 -116.667 -17 -156 -51s-59 -79.333 -59 -136c0 -58.667 19.833 -105.334 59.5 -140.001s92.167 -52 157.5 -52c66.667 0 119.5 17.333 158.5 52s58.5 81.334 58.5 140.001c0 58 -19.5 103.667 -58.5 137s-92.5 50 -160.5 50zM563 657
c-70.667 0 -128.5 -21.166 -173.5 -63.499s-67.5 -96.833 -67.5 -163.5c0 -69.333 22.833 -125.5 68.5 -168.5s105.167 -64.5 178.5 -64.5c75.333 0 135.833 21.167 181.5 63.5s68.5 98.166 68.5 167.499c0 68.667 -23.5 124 -70.5 166s-108.833 63 -185.5 63z" />
    <glyph glyph-name="nine" unicode="9" 
d="M59 360l277.003 -0.000976562c22.667 -108.667 88 -163 196 -163c34 0 64.667 6.5 92 19.5s50.166 31.5 68.499 55.5s33.833 49.333 46.5 76s22.834 57.834 30.501 93.501s13.5 67.167 17.5 94.5s7.33301 57.666 10 90.999c-40 -56.667 -84.167 -98.5 -132.5 -125.5
s-106.833 -40.5 -175.5 -40.5c-132 0 -240.667 44.5 -326 133.5s-128 202.167 -128 339.5c0 146.667 49.167 268.667 147.5 366s221.166 146 368.499 146c77.333 0 146.833 -13.5 208.5 -40.5s112.5 -62.667 152.5 -107s73.167 -97 99.5 -158s45.166 -124 56.499 -189
s17 -132.833 17 -203.5c0 -73.333 -5.5 -144.666 -16.5 -213.999s-30.167 -138.333 -57.5 -207s-61.5 -128.667 -102.5 -180s-93.833 -92.833 -158.5 -124.5s-137.334 -47.5 -218.001 -47.5c-130.667 0 -238.5 34.667 -323.5 104s-134.833 163 -149.5 281zM545.003 1206
c-64.667 0 -118.501 -25 -161.501 -75s-64.5 -112.333 -64.5 -187c0 -76 21.333 -138.667 64 -188s97.334 -74 164.001 -74c65.333 0 119.5 24.5 162.5 73.5s64.5 111.167 64.5 186.5c0 76 -21.833 139 -65.5 189s-98.167 75 -163.5 75z" />
    <glyph glyph-name="colon" unicode=":" horiz-adv-x="569" 
d="M446 1042v-319h-323v319h323zM446 319v-319h-323v319h323z" />
    <glyph glyph-name="semicolon" unicode=";" horiz-adv-x="569" 
d="M449 319l0.000976562 -260c0 -118.667 -26.333 -210.5 -79 -275.5s-134.334 -106.167 -245.001 -123.5v143c48 14.667 83.333 37.5 106 68.5s35.667 73.833 39 128.5h-145v319h324zM444.001 1042v-319h-323v319h323z" />
    <glyph glyph-name="less" unicode="&#x3c;" horiz-adv-x="1228" 
d="M82 424v215l1065 410v-250l-741 -267l741 -266v-254z" />
    <glyph glyph-name="equal" unicode="=" horiz-adv-x="1228" 
d="M82 631v229h1065v-229h-1065zM82 203v229h1065v-229h-1065z" />
    <glyph glyph-name="greater" unicode="&#x3e;" horiz-adv-x="1228" 
d="M1147 424l-1065 -412v254l741 266l-741 267v250l1065 -410v-215z" />
    <glyph glyph-name="question" unicode="?" 
d="M63 987c9.33301 156.667 57.834 279.5 145.501 368.5s211.5 133.5 371.5 133.5c145.333 0 262.5 -38.5 351.5 -115.5s133.5 -178.5 133.5 -304.5c0 -54 -10.667 -104.333 -32 -151s-47.833 -86.167 -79.5 -118.5s-71.5 -64.833 -119.5 -97.5
c-60.667 -41.333 -99.834 -78 -117.501 -110s-26.5 -83.333 -26.5 -154h-272c0 40 0.5 71.333 1.5 94s4 48.167 9 76.5s12.5 52.5 22.5 72.5s23.833 41.5 41.5 64.5s39.834 46.167 66.501 69.5c9.33301 8 26.5 22 51.5 42s43.333 35.5 55 46.5s25.667 26 42 45
s27.833 38.833 34.5 59.5s10 43 10 67c0 49.333 -16.333 89 -49 119s-75.334 45 -128.001 45c-137.333 0 -208.333 -84 -213 -252h-299zM711.001 313v-313h-318v313h318z" />
    <glyph glyph-name="at" unicode="@" horiz-adv-x="1638" 
d="M1421 266l59.9971 -82.0049c-106 -77.333 -208.167 -133.166 -306.5 -167.499s-205.166 -51.5 -320.499 -51.5c-228.667 0 -415.667 67.667 -561 203c-74.667 68 -132 149 -172 243s-60 193.333 -60 298c0 108.667 21.333 211.5 64 308.5s100.5 180.167 173.5 249.5
s160.333 124.333 262 165s209.834 61 324.501 61c134 0 253.5 -26 358.5 -78s186.833 -124.667 245.5 -218s88 -199.333 88 -318c0 -93.333 -19.5 -181.666 -58.5 -264.999s-91.167 -149.833 -156.5 -199.5s-134.333 -74.5 -207 -74.5c-53.333 0 -95.666 13.333 -126.999 40
s-47 63 -47 109c0 16.667 1.33301 30.334 4 41.001c-30 -58.667 -69 -105 -117 -139s-103.333 -51 -166 -51c-82.667 0 -149.667 28.833 -201 86.5s-77 133.167 -77 226.5c0 86.667 19 168.334 57 245.001s88.667 137.667 152 183s131 68 203 68c112 0 189 -46.333 231 -139
l29 106h174l-133 -457c-14 -50.667 -21 -87.334 -21 -110.001c0 -25.333 7.33301 -45.333 22 -60s35.334 -22 62.001 -22c43.333 0 85.333 20.167 126 60.5s73.5 93.333 98.5 159s37.5 133.167 37.5 202.5c0 147.333 -53.167 267 -159.5 359s-244.833 138 -415.5 138
c-134 0 -255.333 -29.5 -364 -88.5s-193.667 -140.667 -255 -245s-92 -221.166 -92 -350.499c0 -122 29 -231.167 87 -327.5s139 -171.166 243 -224.499s222 -80 354 -80c101.333 0 196.666 15.5 285.999 46.5s181 80.833 275 149.5zM1004 888.995
c0 39.333 -11.167 71.668 -33.5 97.001s-52.833 38 -91.5 38c-37.333 0 -72.333 -13.833 -105 -41.5s-59.167 -61.834 -79.5 -102.501s-36.333 -82.167 -48 -124.5s-17.5 -79.833 -17.5 -112.5c0 -55.333 11.333 -98.5 34 -129.5s54.334 -46.5 95.001 -46.5
c37.333 0 72.166 16.167 104.499 48.5s58.333 71.666 78 117.999s35.167 92.333 46.5 138s17 84.834 17 117.501z" />
    <glyph glyph-name="A" unicode="A" horiz-adv-x="1402" 
d="M866 1460l555 -1460h-336l-114 326h-543l-119 -326h-327l555 1460h329zM893 559l-193 543l-194 -543h387z" />
    <glyph glyph-name="B" unicode="B" horiz-adv-x="1441" 
d="M139 1458l689.998 0.000976562c66 0 126.5 -7.16699 181.5 -21.5s104 -35.833 147 -64.5s76.5 -66.834 100.5 -114.501s36 -102.834 36 -165.501c0 -68.667 -17.667 -129.167 -53 -181.5s-83.666 -92.166 -144.999 -119.499c81.333 -22.667 146 -63.667 194 -123
s72 -137.333 72 -234c0 -92 -22.333 -171.333 -67 -238s-103.667 -116 -177 -148s-156.666 -48 -249.999 -48h-729v1458zM450.998 1210l0.000976562 -342.001h290c33.333 0 62.666 2.16699 87.999 6.5s50.5 12 75.5 23s44.333 28.333 58 52s20.5 53.167 20.5 88.5
s-6.5 64.833 -19.5 88.5s-31.667 41.334 -56 53.001s-49.5 19.667 -75.5 24s-56.333 6.5 -91 6.5h-290zM450.999 651l-0.00195312 -396.997h321c30.667 0 57.834 1.33301 81.501 4s47.834 8.16699 72.501 16.5s45 19.666 61 33.999s29.167 33.666 39.5 57.999
s15.5 53.166 15.5 86.499c0 34 -5.5 63.333 -16.5 88s-25 44 -42 58s-38.833 25 -65.5 33s-52.167 13.167 -76.5 15.5s-52.833 3.5 -85.5 3.5h-305z" />
    <glyph glyph-name="C" unicode="C" horiz-adv-x="1517" 
d="M1444 563c-17.333 -183.333 -81.832 -328.834 -193.499 -436.501s-264.834 -161.5 -459.501 -161.5c-212 0 -382.5 70 -511.5 210s-193.5 325.333 -193.5 556c0 142 28.333 270.333 85 385s140 206.167 250 274.5s237.333 102.5 382 102.5c174 0 319.5 -49 436.5 -147
s181.833 -223 194.5 -375h-314c-16.667 80 -53.167 142.333 -109.5 187s-127.5 67 -213.5 67c-54.667 0 -104.167 -9.5 -148.5 -28.5s-81.166 -44.333 -110.499 -76s-54 -69 -74 -112s-34.333 -87.667 -43 -134s-13 -94.833 -13 -145.5c0 -150.667 34.667 -270.5 104 -359.5
s163 -133.5 281 -133.5c96 0 172.167 27.833 228.5 83.5s91.166 136.834 104.499 243.501h318z" />
    <glyph glyph-name="D" unicode="D" horiz-adv-x="1517" 
d="M143 0v1458h590c226.667 0 401.167 -62.667 523.5 -188s183.5 -305.666 183.5 -540.999c0 -234 -61.167 -414 -183.5 -540s-296.833 -189 -523.5 -189h-590zM461 265.999h233c143.333 0 249.833 39.667 319.5 119s104.5 194 104.5 344
c0 149.333 -35.167 263.833 -105.5 343.5s-176.5 119.5 -318.5 119.5h-233v-926z" />
    <glyph glyph-name="E" unicode="E" horiz-adv-x="1327" 
d="M1235 1458v-262h-776v-317h712v-252h-712v-359h790v-268h-1108v1458h1094z" />
    <glyph glyph-name="F" unicode="F" horiz-adv-x="1214" 
d="M1169 1458v-268h-708v-338h616v-254h-616v-598h-320v1458h1028z" />
    <glyph glyph-name="G" unicode="G" horiz-adv-x="1554" 
d="M1440 788l-0.00195312 -788.002h-203l-31 166c-56.667 -68.667 -120.334 -119.334 -191.001 -152.001s-153 -49 -247 -49c-134 0 -253 31.833 -357 95.5s-184.833 153 -242.5 268s-86.5 246.5 -86.5 394.5c0 111.333 17.667 214.5 53 309.5s84.333 176 147 243
s138.5 119.333 227.5 157s185.5 56.5 289.5 56.5c166.667 0 307.167 -46.667 421.5 -140s181.166 -216.666 200.499 -369.999h-309c-15.333 76.667 -50.666 136.167 -105.999 178.5s-125.666 63.5 -210.999 63.5c-122 0 -217.833 -44.167 -287.5 -132.5
s-104.5 -210.166 -104.5 -365.499c0 -158.667 35.333 -282 106 -370s169.334 -132 296.001 -132c100.667 0 182.834 30.333 246.501 91s97.5 140.334 101.5 239.001h-326v237h613z" />
    <glyph glyph-name="H" unicode="H" horiz-adv-x="1517" 
d="M1376 1458v-1458h-319v629h-596v-629h-320v1458h320v-549h596v549h319z" />
    <glyph glyph-name="I" unicode="I" horiz-adv-x="604" 
d="M463 1458v-1458h-322v1458h322z" />
    <glyph glyph-name="J" unicode="J" 
d="M1020 1458l0.00390625 -1001c0 -160.667 -40 -282.834 -120 -366.501s-199.667 -125.5 -359 -125.5c-154 0 -273.833 40.167 -359.5 120.5s-128.5 201.5 -128.5 363.5v96h295v-45c0 -22.667 0.166992 -39.834 0.5 -51.501s1.16602 -27.834 2.49902 -48.501
s3.66602 -36.667 6.99902 -48s7.66602 -24.833 12.999 -40.5s12.5 -28 21.5 -37s19.667 -17.833 32 -26.5s27.5 -15 45.5 -19s38 -6 60 -6c30.667 0 57 4.66699 79 14s38.833 20.666 50.5 33.999s20.667 31.833 27 55.5s10.166 45.334 11.499 65.001s2 44.834 2 75.501v991
h320z" />
    <glyph glyph-name="K" unicode="K" horiz-adv-x="1478" 
d="M1438 1458l-572 -575l625 -883h-401l-443 655l-186 -184v-471h-316v1458h316v-606l573 606h404z" />
    <glyph glyph-name="L" unicode="L" horiz-adv-x="1214" 
d="M1174 274v-274h-1033v1458h320v-1184h713z" />
    <glyph glyph-name="M" unicode="M" horiz-adv-x="1857" 
d="M141 0v1458h457l340 -1001l332 1001h446v-1458h-301v1036l-358 -1036h-248l-363 1026v-1026h-305z" />
    <glyph glyph-name="N" unicode="N" horiz-adv-x="1517" 
d="M141 0v1458h326l600 -977v977h307v-1458h-319l-604 979v-979h-310z" />
    <glyph glyph-name="O" unicode="O" horiz-adv-x="1593" 
d="M801 1493c140.667 0 265.171 -31.833 373.504 -95.5s192.333 -153.667 252 -270s89.5 -249.833 89.5 -400.5c0 -150 -29.833 -282.833 -89.5 -398.5s-143.834 -205.167 -252.501 -268.5s-233.667 -95 -375 -95c-106.667 0 -204.834 18.333 -294.501 55
s-165.834 88 -228.501 154s-111.334 146.5 -146.001 241.5s-52 198.833 -52 311.5c0 231.333 66 416.833 198 556.5s307 209.5 525 209.5zM797.004 1231c-120.667 0 -216.833 -45.167 -288.5 -135.5s-107.5 -211.166 -107.5 -362.499c0 -156 35.667 -278.667 107 -368
s169 -134.666 293 -135.999c120.667 0 216 45.167 286 135.5s105 213.166 105 368.499c0 153.333 -35.333 274.666 -106 363.999s-167 134 -289 134z" />
    <glyph glyph-name="P" unicode="P" horiz-adv-x="1366" 
d="M143 1458h629c164 0 294.167 -39.333 390.5 -118s144.5 -195.667 144.5 -351c0 -102.667 -23.167 -189.5 -69.5 -260.5s-107.833 -122.833 -184.5 -155.5s-165 -49 -265 -49h-327v-524h-318v1458zM461 1196v-420h284c78.667 0 140 15.833 184 47.5s66 85.5 66 161.5
c0 74 -22.167 127.667 -66.5 161s-104.5 50 -180.5 50h-287z" />
    <glyph glyph-name="Q" unicode="Q" horiz-adv-x="1593" 
d="M1503 16l-149.001 -161l-215 194c-88.667 -56 -206.334 -84 -353.001 -84c-211.333 0 -382.166 69.667 -512.499 209s-195.5 323 -195.5 551c0 148.667 30.5 281.167 91.5 397.5s146.333 206.833 256 271.5s234.834 97 375.501 97c137.333 0 260 -32.167 368 -96.5
s192 -154 252 -269s90 -245.833 90 -392.5c0 -114 -17.167 -218.833 -51.5 -314.5s-82.5 -172.5 -144.5 -230.5zM1094 393c65.333 78.667 98.002 191.333 98.002 338c0 152.667 -35.5 273.5 -106.5 362.5s-167.833 133.5 -290.5 133.5
c-120.667 0 -216.834 -45.167 -288.501 -135.5s-107.5 -211.833 -107.5 -364.5c0 -153.333 35.667 -276 107 -368s167 -138 287 -138c47.333 0 93.666 9.66699 138.999 29l-146 127l150 160z" />
    <glyph glyph-name="R" unicode="R" horiz-adv-x="1478" 
d="M154 1458l725.001 -0.000976562c68.667 0 132 -8 190 -24s109.833 -40.167 155.5 -72.5s81.334 -75.5 107.001 -129.5s38.5 -116.667 38.5 -188c0 -84.667 -20.333 -158.667 -61 -222s-97.334 -108.666 -170.001 -135.999c126.667 -26 198.334 -139.333 215.001 -340
c0.666992 -7.33301 2.16699 -28.666 4.5 -63.999s4.66602 -63.5 6.99902 -84.5s5.83301 -46.667 10.5 -77s11 -55.5 19 -75.5s17.333 -35 28 -45h-331c-11.333 22 -19.833 49.333 -25.5 82s-10.167 76.167 -13.5 130.5s-5.33301 83.166 -6 86.499
c-10 102.667 -35.333 173.667 -76 213s-112.334 59 -215.001 59h-285v-571h-317v1458zM471.001 1206l-0.00292969 -403.004h303c33.333 0 62.5 1.33301 87.5 4s50.333 8.33398 76 17.001s46.834 20.334 63.501 35.001s30.167 34.834 40.5 60.501s15.5 55.834 15.5 90.501
c0 32.667 -5.16699 61 -15.5 85s-23.666 43 -39.999 57s-36.666 25.167 -60.999 33.5s-48.333 13.833 -72 16.5s-50.5 4 -80.5 4h-317z" />
    <glyph glyph-name="S" unicode="S" horiz-adv-x="1329" 
d="M1221 1024l-302.999 -0.00390625c-6 70.667 -32.5 124.5 -79.5 161.5s-112.833 55.5 -197.5 55.5c-73.333 0 -130.833 -14.667 -172.5 -44s-62.5 -70 -62.5 -122c0 -18 2.83301 -33.833 8.5 -47.5s15.667 -26.167 30 -37.5s29 -20.833 44 -28.5s37.167 -16 66.5 -25
s56 -16.667 80 -23l101.5 -26.5l115.5 -31c70 -20 129.167 -41 177.5 -63s92.166 -49.167 131.499 -81.5s68.666 -71.166 87.999 -116.499s29 -97.666 29 -156.999c0 -66.667 -11.333 -127 -34 -181s-53.167 -98.667 -91.5 -134s-83.5 -65 -135.5 -89
s-106.167 -41.167 -162.5 -51.5s-115.166 -15.5 -176.499 -15.5c-198 0 -352.5 45.5 -463.5 136.5s-167.5 218.833 -169.5 383.5h317c5.33301 -182.667 115.333 -274 330 -274c84 0 150.167 17.333 198.5 52s72.5 82.334 72.5 143.001c0 50 -21.667 86.667 -65 110
s-136 55 -278 95c-24.667 6.66699 -43.667 12 -57 16c-120.667 34.667 -204.334 63 -251.001 85c-101.333 48.667 -166.333 116.667 -195 204c-12.667 40 -19 85 -19 135c0 132 51 237.667 153 317s238 119 408 119c78.667 0 151 -9.16699 217 -27.5
s124.833 -45.833 176.5 -82.5s92.334 -85.167 122.001 -145.5s45.167 -130.166 46.5 -209.499z" />
    <glyph glyph-name="T" unicode="T" horiz-adv-x="1251" 
d="M1225 1458v-272h-439v-1186h-321v1186h-438v272h1198z" />
    <glyph glyph-name="U" unicode="U" horiz-adv-x="1517" 
d="M1382 1458l0.000976562 -875.999c0 -208.667 -50.167 -362.667 -150.5 -462s-256.833 -149 -469.5 -149c-216 0 -374.833 50.167 -476.5 150.5s-152.5 255.166 -152.5 464.499v872h320v-872c0 -58.667 4.66699 -108.5 14 -149.5s25.5 -77.167 48.5 -108.5
s55.167 -54.5 96.5 -69.5s92.666 -22.5 153.999 -22.5c60 0 110 7.83301 150 23.5s70.5 39.667 91.5 72s35.5 68.333 43.5 108s12 88.5 12 146.5v872h319z" />
    <glyph glyph-name="V" unicode="V" horiz-adv-x="1290" 
d="M-16 1458h333l328 -1024l332 1024h332l-486 -1458h-362z" />
    <glyph glyph-name="W" unicode="W" horiz-adv-x="1933" 
d="M6 1458h322l233 -991l256 991h301l252 -1003l242 1003h315l-393 -1458h-320l-249 995l-246 -995h-326z" />
    <glyph glyph-name="X" unicode="X" horiz-adv-x="1366" 
d="M1333 1458l-469 -696l512 -762h-383l-319 506l-324 -506h-364l514 762l-475 696h372l291 -469l293 469h352z" />
    <glyph glyph-name="Y" unicode="Y" horiz-adv-x="1366" 
d="M1384 1458l-542 -897v-561h-316v567l-544 891h364l340 -584l344 584h354z" />
    <glyph glyph-name="Z" unicode="Z" horiz-adv-x="1327" 
d="M1249 1458v-244l-790 -940h817v-274h-1235v260l784 926h-729v272h1153z" />
    <glyph glyph-name="bracketleft" unicode="[" horiz-adv-x="681" 
d="M674 1468v-223h-262v-1374h262v-223h-531v1820h531z" />
    <glyph glyph-name="backslash" unicode="\" horiz-adv-x="759" 
d="M231 1493l560 -1528h-252l-557 1528h249z" />
    <glyph glyph-name="bracketright" unicode="]" horiz-adv-x="681" 
d="M8 1468h531v-1820h-531v223h262v1374h-262v223z" />
    <glyph glyph-name="asciicircum" unicode="^" horiz-adv-x="1228" 
d="M137 549l361 872h233l361 -872h-244l-240 590l-227 -590h-244z" />
    <glyph glyph-name="underscore" unicode="_" horiz-adv-x="1024" 
d="M0 -256v102h1024v-102h-1024z" />
    <glyph glyph-name="grave" unicode="`" horiz-adv-x="530" 
d="M227 1479l193 -293h-207l-311 293h325z" />
    <glyph glyph-name="a" unicode="a" horiz-adv-x="1175" 
d="M1094 0l-295.004 0.00292969c-10.667 30 -17.667 64 -21 102c-88.667 -88.667 -202.667 -133 -342 -133c-116.667 0 -208.667 28.5 -276 85.5s-101 135.167 -101 234.5c0 38 5.33301 72.667 16 104s23.334 57.5 38.001 78.5s35.667 40 63 57s51.833 30.167 73.5 39.5
s51.334 18.166 89.001 26.499s67.334 14.166 89.001 17.499s52.5 7.66602 92.5 12.999c102 13.333 170.5 27.666 205.5 42.999s52.5 43.333 52.5 84c0 48 -15.5 83.5 -46.5 106.5s-78.833 34.5 -143.5 34.5c-66.667 0 -115.667 -12 -147 -36s-52 -66 -62 -126h-273
c8 117.333 53.5 206 136.5 266s200.833 90 353.5 90c47.333 0 90.833 -2.33301 130.5 -7s80.667 -14.5 123 -29.5s78 -34.667 107 -59s53 -57.666 72 -99.999s28.5 -91.833 28.5 -148.5v-456c0 -47.333 0.333008 -81.333 1 -102s3.83398 -49.667 9.50098 -87
s14.5 -70 26.5 -98zM775.996 514.003c-13.333 -7.33301 -26.332 -13.667 -38.999 -19s-27 -10 -43 -14s-28.167 -6.83301 -36.5 -8.5s-23.333 -4.16699 -45 -7.5s-35.5 -5.33301 -41.5 -6c-68.667 -11.333 -115.334 -23 -140.001 -35c-48.667 -24 -73 -65 -73 -123
c0 -44 14.167 -78.5 42.5 -103.5s67.5 -37.5 117.5 -37.5c78 0 140.5 20.5 187.5 61.5s70.5 98.833 70.5 173.5v119z" />
    <glyph glyph-name="b" unicode="b" horiz-adv-x="1251" 
d="M397 1458l0.000976562 -530c82.667 102 194 153 334 153c94 0 175.833 -24.5 245.5 -73.5s121.667 -114 156 -195s51.5 -172.167 51.5 -273.5c0 -168.667 -43.333 -305.5 -130 -410.5s-199.667 -157.5 -339 -157.5c-146.667 0 -257.334 54 -332.001 162l2 -133h-276v1458
h288zM641.001 858c-78 0 -139.833 -28.998 -185.5 -86.998s-68.5 -136.667 -68.5 -236c0 -102.667 22.667 -183.334 68 -242.001s107.333 -88 186 -88c76 0 136.667 30.167 182 90.5s68 140.833 68 241.5c0 97.333 -22.667 175.166 -68 233.499s-106 87.5 -182 87.5z" />
    <glyph glyph-name="c" unicode="c" horiz-adv-x="1175" 
d="M1118 408c-18.667 -136.667 -72.498 -243.332 -161.498 -319.999s-203.833 -115 -344.5 -115c-162.667 0 -293 49.833 -391 149.5s-147 232.167 -147 397.5c0 171.333 49.333 308.666 148 411.999s230 155 394 155c141.333 0 256.166 -35.667 344.499 -107
s138.833 -168.666 151.5 -291.999h-285c-10 58 -33.167 102.833 -69.5 134.5s-82.833 47.5 -139.5 47.5c-79.333 0 -141 -30.167 -185 -90.5s-66 -144.833 -66 -253.5c0 -105.333 21.333 -186.833 64 -244.5s103 -86.5 181 -86.5c62.667 0 113.167 18.167 151.5 54.5
s63.166 89.166 74.499 158.499h280z" />
    <glyph glyph-name="d" unicode="d" horiz-adv-x="1251" 
d="M1141 0l-275 0.000976562v135c-70 -109.333 -176.333 -164 -319 -164c-146.667 0 -263.167 50.667 -349.5 152s-129.5 237.666 -129.5 408.999c0 167.333 42 301.333 126 402s196 151 336 151c66 0 128 -13.5 186 -40.5s103.333 -66.5 136 -118.5v532h289v-1458z
M862 530.001c0 102.667 -22.168 182.668 -66.501 240.001s-106.166 86 -185.499 86c-78.667 0 -140 -28.5 -184 -85.5s-66 -136.5 -66 -238.5c0 -102.667 22.167 -182.834 66.5 -240.501s105.5 -86.5 183.5 -86.5c80 0 142 28.333 186 85s66 136.667 66 240z" />
    <glyph glyph-name="e" unicode="e" horiz-adv-x="1175" 
d="M1104 328c-32.667 -113.333 -93.168 -201.5 -181.501 -264.5s-193.166 -94.5 -314.499 -94.5c-162.667 0 -293.334 50.667 -392.001 152s-148 235 -148 401c0 164 50 299.167 150 405.5s226.667 159.5 380 159.5c160 0 287 -54.333 381 -163s141 -255.667 141 -441v-28
h-758c2 -90.667 24.333 -160.167 67 -208.5s103 -72.5 181 -72.5c52.667 0 96.334 12.333 131.001 37s62.667 63.667 84 117h279zM824.999 639c-6.66699 69.333 -29 126.333 -67 171s-91.333 67 -160 67c-64.667 0 -118.167 -21.333 -160.5 -64s-67.5 -100.667 -75.5 -174
h463z" />
    <glyph glyph-name="f" unicode="f" horiz-adv-x="681" 
d="M686 1458v-213c-60 2.66699 -92 4 -96 4c-52 0 -86.5 -7 -103.5 -21s-25.5 -43 -25.5 -87v-84h207v-197h-205v-860h-291v860h-172v197h172v55c0 123.333 27.833 212.833 83.5 268.5s148.834 83.5 279.501 83.5c15.333 0 31.333 -0.333008 48 -1s35.167 -1.5 55.5 -2.5
s36.166 -1.83301 47.499 -2.5z" />
    <glyph glyph-name="g" unicode="g" horiz-adv-x="1251" 
d="M1124 1057l0.00195312 -946.001c0 -174 -43 -301.5 -129 -382.5s-216.333 -121.5 -391 -121.5c-301.333 0 -466.333 110 -495 330h288c11.333 -47.333 33.833 -81.833 67.5 -103.5s82.167 -32.5 145.5 -32.5c47.333 0 86.666 6 117.999 18s55.166 30.833 71.499 56.5
s27.666 54 33.999 85s9.83301 69.5 10.5 115.5l2 119c-78.667 -109.333 -186.667 -164 -324 -164s-246.666 47 -327.999 141s-122 220.333 -122 379c0 160.667 42.333 289.834 127 387.501s196.667 146.5 336 146.5c72.667 0 133.5 -13.333 182.5 -40s93.167 -70 132.5 -130
v142h274zM602.002 859.999c-76.667 0 -136.499 -27 -179.499 -81s-64.5 -129.333 -64.5 -226c0 -93.333 22 -167.5 66 -222.5s104 -82.5 180 -82.5c75.333 0 134.833 27.833 178.5 83.5s65.5 131.5 65.5 227.5c0 94 -21.833 167.667 -65.5 221s-103.834 80 -180.501 80z" />
    <glyph glyph-name="h" unicode="h" horiz-adv-x="1214" 
d="M399 1458l0.000976562 -543c83.333 112 194.666 168 333.999 168c247.333 0 371 -130.333 371 -391v-692h-291v623c0 72.667 -13 128 -39 166s-75 57 -147 57c-37.333 0 -69.833 -5.83301 -97.5 -17.5s-49.667 -26.667 -66 -45s-29.5 -41.5 -39.5 -69.5
s-16.667 -55.667 -20 -83s-5 -58 -5 -92v-539h-286v1458h286z" />
    <glyph glyph-name="i" unicode="i" horiz-adv-x="528" 
d="M410 1458v-246h-291v246h291zM410 1057v-1057h-291v1057h291z" />
    <glyph glyph-name="j" unicode="j" horiz-adv-x="569" 
d="M430 1057l-0.00390625 -1059c0 -70 -5.33301 -127.833 -16 -173.5s-29.167 -84.667 -55.5 -117s-62.166 -55.5 -107.499 -69.5s-103 -21 -173 -21c-38.667 0 -77.667 1.33301 -117 4v234c16.667 -1.33301 34.334 -2 53.001 -2c24.667 0 44.834 2.33301 60.501 7
s27.834 10 36.501 16s15.167 16.667 19.5 32s6.83301 29.166 7.5 41.499s1 31.166 1 56.499v1051h291zM429.996 1458v-250h-291v250h291z" />
    <glyph glyph-name="k" unicode="k" horiz-adv-x="1175" 
d="M1137 1057l-398 -391l445 -666h-353l-290 469l-119 -111v-358h-285v1458h285v-780l373 379h342z" />
    <glyph glyph-name="l" unicode="l" horiz-adv-x="528" 
d="M410 1458v-1458h-291v1458h291z" />
    <glyph glyph-name="m" unicode="m" horiz-adv-x="1855" 
d="M1739 0l-295.001 0.000976562v631c0 33.333 -1.83301 61.333 -5.5 84s-11 45 -22 67s-28.167 38.5 -51.5 49.5s-53 16.5 -89 16.5c-135.333 0 -203 -84.667 -203 -254v-594h-291v643c0 31.333 -2 58.166 -6 80.499s-11.333 43.833 -22 64.5s-27 36.167 -49 46.5
s-49.333 15.5 -82 15.5c-140.667 0 -211 -92.333 -211 -277v-573h-291v1057h276v-146c82.667 116 194.667 174 336 174c146.667 0 246.334 -58 299.001 -174c84.667 116 200 174 346 174c116.667 0 206 -33.5 268 -100.5s93 -158.167 93 -273.5v-711z" />
    <glyph glyph-name="n" unicode="n" horiz-adv-x="1214" 
d="M1106 0l-294.999 -0.000976562v616c0 28.667 -1.16699 53.5 -3.5 74.5s-7.33301 41.833 -15 62.5s-18 37.334 -31 50.001s-30.333 23 -52 31s-47.834 12 -78.501 12c-81.333 0 -140 -25.333 -176 -76s-54 -118.334 -54 -203.001v-567h-288v1057h276v-148
c87.333 117.333 204 176 350 176c113.333 0 202.833 -32.667 268.5 -98s98.5 -158.666 98.5 -279.999v-707z" />
    <glyph glyph-name="o" unicode="o" horiz-adv-x="1251" 
d="M631 1087c162.667 0 293.333 -51.166 392 -153.499s148 -237.5 148 -405.5c0 -170 -49.5 -306 -148.5 -408s-230.833 -153 -395.5 -153s-297 51.167 -397 153.5s-150 238.166 -150 407.499c0 168 50.333 303.167 151 405.5s234 153.5 400 153.5zM622.999 866.001
c-78 0 -139.501 -29.998 -184.501 -89.998s-67.5 -142.667 -67.5 -248c0 -108.667 22.333 -192.834 67 -252.501s107.667 -89.5 189 -89.5c80 0 142.333 30.167 187 90.5s67 144.833 67 253.5c0 105.333 -22.667 187.666 -68 246.999s-108.666 89 -189.999 89z" />
    <glyph glyph-name="p" unicode="p" horiz-adv-x="1251" 
d="M385 1057l-0.000976562 -131c76 106 185.333 159 328 159s256.834 -51.333 342.501 -154s128.5 -239 128.5 -409c0 -166 -42 -299 -126 -399s-195 -150 -333 -150c-142 0 -250.667 52.667 -326 158v-506h-288v1432h274zM640.999 852
c-79.333 0 -141.167 -28.667 -185.5 -86s-66.5 -137.333 -66.5 -240s22.333 -182.5 67 -239.5s107 -85.5 187 -85.5c78 0 139.167 28.333 183.5 85s66.5 135.334 66.5 236.001c0 103.333 -22.5 184.166 -67.5 242.499s-106.5 87.5 -184.5 87.5z" />
    <glyph glyph-name="q" unicode="q" horiz-adv-x="1251" 
d="M1143 1057v-1432h-289v508c-78 -106.667 -186.667 -160 -326 -160c-140.667 0 -252.5 49.667 -335.5 149s-124.5 232.666 -124.5 399.999c0 170.667 43 307.167 129 409.5s200.667 153.5 344 153.5c146.667 0 255 -53 325 -159v131h277zM604 854.001
c-76 0 -135.666 -29.834 -178.999 -89.501s-65 -141.167 -65 -244.5c0 -100.667 22 -179 66 -235s105.333 -84 184 -84c79.333 0 141.166 28.833 185.499 86.5s66.5 138.5 66.5 242.5c0 102.667 -22.5 182.334 -67.5 239.001s-108.5 85 -190.5 85z" />
    <glyph glyph-name="r" unicode="r" horiz-adv-x="796" 
d="M797 1075l0.00195312 -267.997c-40.667 8 -78.334 12 -113.001 12c-48.667 0 -91.167 -8.33301 -127.5 -25s-65.333 -40.334 -87 -71.001s-37.667 -65.834 -48 -105.501s-15.5 -84.5 -15.5 -134.5v-483h-291v1057h276v-195c33.333 69.333 79.166 123.166 137.499 161.499
s126.5 57.5 204.5 57.5c14 0 35.333 -2 64 -6z" />
    <glyph glyph-name="s" unicode="s" horiz-adv-x="1099" 
d="M1004 750l-271.005 0.00390625c-8 53.333 -28.167 90.833 -60.5 112.5s-79.166 32.5 -140.499 32.5c-51.333 0 -91.333 -9.16699 -120 -27.5s-43 -43.833 -43 -76.5c0 -13.333 1.83301 -25.333 5.5 -36s10.834 -20 21.501 -28s20.834 -14.667 30.501 -20
s25.334 -11 47.001 -17s39.834 -10.667 54.501 -14s38 -8.33301 70 -15l29 -6c35.333 -7.33301 63.166 -13.333 83.499 -18s47 -12 80 -22s59.333 -20 79 -30s41.5 -23.333 65.5 -40s42.5 -34.667 55.5 -54s24.167 -43 33.5 -71s14 -58.667 14 -92
c0 -110.667 -43 -198.167 -129 -262.5s-204 -96.5 -354 -96.5c-68 0 -130.833 7 -188.5 21s-109.667 35.5 -156 64.5s-83 68.167 -110 117.5s-40.833 106.666 -41.5 171.999h277c9.33301 -117.333 84.333 -176 225 -176c59.333 0 106.333 11.833 141 35.5s52 55.5 52 95.5
c0 16.667 -3.5 31.5 -10.5 44.5s-15.667 23.667 -26 32s-25.833 16.166 -46.5 23.499s-40.5 13.5 -59.5 18.5s-44.833 11.167 -77.5 18.5c-8 2 -14 3.33301 -18 4c-106.667 24.667 -164.667 38 -174 40c-111.333 32 -186 79.333 -224 142c-24 39.333 -36 86.666 -36 141.999
c0 103.333 40.167 183 120.5 239s194.5 84 342.5 84c62.667 0 120.334 -6.16699 173.001 -18.5s100.5 -31.333 143.5 -57s77 -60.834 102 -105.501s38.5 -96.667 40.5 -156z" />
    <glyph glyph-name="t" unicode="t" horiz-adv-x="720" 
d="M692 1057v-197.001h-215v-498c0 -20.667 0.166992 -36.334 0.5 -47.001s1.83301 -22.834 4.5 -36.501s6.66699 -23.667 12 -30s12.5 -12.666 21.5 -18.999s20.833 -10.666 35.5 -12.999s32.334 -3.5 53.001 -3.5c35.333 0 64.666 1.33301 87.999 4v-221
c-71.333 -5.33301 -130 -8 -176 -8c-64.667 0 -117 4.66699 -157 14s-73.333 26.333 -100 51s-45.167 57.334 -55.5 98.001s-15.5 94 -15.5 160v549h-176v197h176v319h289v-319h215z" />
    <glyph glyph-name="u" unicode="u" horiz-adv-x="1214" 
d="M1102 1057v-1057h-277v150c-82.667 -120.667 -197.334 -181 -344.001 -181c-116 0 -206.333 32 -271 96s-97 157.667 -97 281v711h293v-604c0 -31.333 0.833008 -57 2.5 -77s5.83398 -41.333 12.501 -64s16.167 -40.5 28.5 -53.5s29.833 -23.833 52.5 -32.5
s50 -13 82 -13c152.667 0 229 99.667 229 299v545h289z" />
    <glyph glyph-name="v" unicode="v" horiz-adv-x="1064" 
d="M768 1057h289l-359 -1057h-325l-363 1057h307l226 -721z" />
    <glyph glyph-name="w" unicode="w" horiz-adv-x="1667" 
d="M10 1057h309l197 -719l178 719h281l184 -715l197 715h297l-334 -1057h-299l-189 711l-182 -711h-301z" />
    <glyph glyph-name="x" unicode="x" horiz-adv-x="1099" 
d="M1059 1057l-348 -494l391 -563h-332l-223 342l-221 -342h-330l385 557l-350 500h331l189 -283l186 283h322z" />
    <glyph glyph-name="y" unicode="y" horiz-adv-x="1062" 
d="M1071 1057l-389 -1053c-40.667 -109.333 -71.667 -182.666 -93 -219.999c-42 -72 -97.667 -119.333 -167 -142c-40 -12.667 -87.667 -19 -143 -19c-36 0 -101 0.666992 -195 2v240h141c47.333 0 83.833 12.333 109.5 37s38.5 59.334 38.5 104.001
c0 11.333 -2.66699 25 -8 41l-383 1010h313l242 -719l233 719h301z" />
    <glyph glyph-name="z" unicode="z" horiz-adv-x="1062" 
d="M981 1057v-211l-557 -617h594v-229h-973v221l559 613h-516v223h893z" />
    <glyph glyph-name="braceleft" unicode="{" horiz-adv-x="681" 
d="M676 -350c-175.333 8 -297.665 46.5 -366.998 115.5s-104 188.167 -104 357.5v74c0 32.667 -0.333008 58.5 -1 77.5s-2.33398 39.667 -5.00098 62s-6.83398 39.833 -12.501 52.5s-13.5 25.834 -23.5 39.501s-22.333 24.167 -37 31.5s-32.5 14 -53.5 20
s-45.833 10.667 -74.5 14v131c81.333 8.66699 136.166 32.167 164.499 70.5s42.5 100.833 42.5 187.5v110c0 170 34.5 289.5 103.5 358.5s191.5 108.5 367.5 118.5v-131c-80.667 -8 -134.667 -32.833 -162 -74.5s-41 -110.834 -41 -207.501v-117
c0 -117.333 -22.833 -206.333 -68.5 -267s-124.5 -98.667 -236.5 -114c59.333 -5.33301 109.333 -18.5 150 -39.5s72 -49 94 -84s37.667 -73 47 -114s14 -88.833 14 -143.5v-119c0 -46.667 2.16699 -84.5 6.5 -113.5s13.333 -56.333 27 -82s34.334 -45.167 62.001 -58.5
s63.5 -22 107.5 -26v-129z" />
    <glyph glyph-name="bar" unicode="|" horiz-adv-x="456" 
d="M104 -438v2048h248v-2048h-248z" />
    <glyph glyph-name="braceright" unicode="}" horiz-adv-x="681" 
d="M676 494c-28.667 -3.33301 -53.499 -8 -74.499 -14s-38.833 -12.667 -53.5 -20s-27 -17.833 -37 -31.5s-17.833 -26.834 -23.5 -39.501s-9.83398 -30.167 -12.501 -52.5s-4.33398 -43 -5.00098 -62s-1 -44.833 -1 -77.5v-74c0 -169.333 -34.667 -288.5 -104 -357.5
s-191.666 -107.5 -366.999 -115.5v129c44 4 79.833 12.667 107.5 26s48.334 32.833 62.001 58.5s22.667 53 27 82s6.5 66.833 6.5 113.5v119c0 54.667 4.66699 102.5 14 143.5s25 79 47 114s53.333 63 94 84s90.667 34.167 150 39.5c-112 15.333 -190.833 53.333 -236.5 114
s-68.5 149.667 -68.5 267v117c0 96.667 -13.667 165.834 -41 207.501s-81.333 66.5 -162 74.5v131c176 -10 298.5 -49.5 367.5 -118.5s103.5 -188.5 103.5 -358.5v-110c0 -86.667 14.167 -149.167 42.5 -187.5s83.166 -61.833 164.499 -70.5v-131z" />
    <glyph glyph-name="asciitilde" unicode="~" horiz-adv-x="1228" 
d="M864 350c-29.333 0 -64.834 4.83301 -106.501 14.5s-76.834 19.167 -105.501 28.5s-69.167 23.5 -121.5 42.5l-98.5 35.5c-45.333 14 -76 21 -92 21c-35.333 0 -63.5 -14.5 -84.5 -43.5s-34.5 -62.5 -40.5 -100.5h-160c3.33301 36 9 70.5 17 103.5s20 65.833 36 98.5
s35.167 60.667 57.5 84s50.333 42.333 84 57s71.167 22 112.5 22c22 0 46.167 -2.66699 72.5 -8s48 -10.5 65 -15.5s41.667 -13 74 -24l65.5 -22.5c4.66699 -1.33301 19.334 -6.33301 44.001 -15l56.5 -19.5c13 -4.33301 30.333 -9.5 52 -15.5s41 -10.5 58 -13.5
s32.167 -4.5 45.5 -4.5c66 0 107 46 123 138h160c-5.33301 -50 -14.5 -95.167 -27.5 -135.5s-31.167 -78.333 -54.5 -114s-54.666 -63.5 -93.999 -83.5s-85.333 -30 -138 -30z" />
    <glyph glyph-name="nbspace" unicode="&#xa0;" horiz-adv-x="569" 
 />
    <glyph glyph-name="sterling" unicode="&#xa3;" 
d="M1106 981l-287.001 -0.000976562c-0.666992 82.667 -20.167 145.667 -58.5 189s-93.166 65 -164.499 65c-58.667 0 -107.167 -17.667 -145.5 -53s-57.5 -80.333 -57.5 -135c0 -31.333 9.66699 -71.666 29 -120.999s39.666 -90.333 60.999 -123h273v-168h-217
c14.667 -50 22 -87.667 22 -113c0 -60 -14.833 -111.833 -44.5 -155.5s-72.834 -90.167 -129.501 -139.5c62 28.667 123.333 43 184 43c38 0 86 -6.66699 144 -20c64.667 -16.667 108.334 -25 131.001 -25c74 0 136.667 28.667 188 86l123 -211
c-84.667 -84.667 -194.667 -127 -330 -127c-12.667 0 -25 0.333008 -37 1s-22.333 1.33398 -31 2.00098s-19 2.16699 -31 4.5s-21 4 -27 5s-15.667 3.33301 -29 7l-27 7.5l-32 9.5c-16.667 5 -27.667 8.5 -33 10.5c-81.333 22 -143 33 -185 33
c-37.333 0 -72.166 -6 -104.499 -18s-70.5 -33.333 -114.5 -64l-125 187c3.33301 3.33301 14.166 12.333 32.499 27l34 27.5c4.33301 3.66699 14.166 12.5 29.499 26.5s25.333 23.833 30 29.5s13.167 15.167 25.5 28.5s20.5 24.166 24.5 32.499s9.83301 19.5 17.5 33.5
s12.834 27 15.501 39s5.33398 25.5 8.00098 40.5s4 30.5 4 46.5c0 48 -11.333 96.667 -34 146h-201v168h131c-58.667 83.333 -88 169.333 -88 258c0 124 47.167 224.333 141.5 301s217.833 115 370.5 115c161.333 0 286.333 -42.833 375 -128.5s135 -208.167 139 -367.5z
" />
    <glyph glyph-name="currency" unicode="&#xa4;" 
d="M1073 354l-125 -124.999l-137 136c-74.667 -49.333 -154.667 -74 -240 -74c-88.667 0 -169.667 24.667 -243 74l-138 -136l-124 125l135 135c-49.333 78.667 -74 160 -74 244c0 85.333 24.667 166.666 74 243.999l-135 135l124 125l136 -135c78 49.333 159 74 243 74
c78.667 0 160.667 -24.667 246 -74l133 135l125 -125l-135 -135c49.333 -69.333 74 -151.333 74 -246c0 -83.333 -24.667 -164 -74 -242zM782 733.001c0 58.667 -20.835 108.834 -62.502 150.501s-91.834 62.5 -150.501 62.5c-59.333 0 -109.666 -20.833 -150.999 -62.5
s-62 -91.834 -62 -150.501c0 -59.333 20.833 -109.666 62.5 -150.999s91.834 -62 150.501 -62s108.834 20.667 150.501 62s62.5 91.666 62.5 150.999z" />
    <glyph glyph-name="brokenbar" unicode="&#xa6;" horiz-adv-x="456" 
d="M119 -182v512h219v-512h-219zM119 842v512h219v-512h-219z" />
    <glyph glyph-name="section" unicode="&#xa7;" 
d="M1012 1100l-258 -0.000976562c-4 54.667 -20.5 96.334 -49.5 125.001s-69.167 43 -120.5 43c-44.667 0 -81.167 -11.5 -109.5 -34.5s-42.5 -53.167 -42.5 -90.5c0 -10 0.833008 -19 2.5 -27s3.5 -15.5 5.5 -22.5s6.16699 -14 12.5 -21l17 -18.5
c5 -5.33301 13.333 -11.833 25 -19.5l30.5 -19.5c8.66699 -5.33301 22 -12.833 40 -22.5l47.5 -25l59 -30l67.5 -34.5l50.5 -26l53.5 -27c12 -6 29 -15.167 51 -27.5s39.167 -22.833 51.5 -31.5l46 -33.5c18.333 -13.667 32.666 -26.334 42.999 -38.001
s21.666 -25.667 33.999 -42s21.833 -32.666 28.5 -48.999s12.167 -34.5 16.5 -54.5s6.5 -40.667 6.5 -62c0 -67.333 -19.167 -127.833 -57.5 -181.5s-90.166 -92.167 -155.499 -115.5c74 -66.667 111 -144.334 111 -233.001c0 -107.333 -41.167 -195 -123.5 -263
s-188.833 -102 -319.5 -102c-141.333 0 -252 36.167 -332 108.5s-120.667 172.166 -122 299.499h260c8.66699 -122 73.334 -183 194.001 -183c49.333 0 88.666 12.333 117.999 37s44 57.334 44 98.001c0 44.667 -23 83.834 -69 117.501s-139 84.834 -279 153.501
c-96.667 48 -161.667 83 -195 105c-98.667 65.333 -154.667 144.333 -168 237c-2 15.333 -3 31.666 -3 48.999c0 72 19.5 133.667 58.5 185s92.5 88 160.5 110c-58.667 61.333 -88 130.333 -88 207c0 100.667 40.333 183.167 121 247.5s184.334 96.5 311.001 96.5
s229 -35.333 307 -106s117.667 -163.667 119 -279zM385 800.999c-34.667 -10 -61.832 -26.998 -81.499 -50.998s-29.5 -52 -29.5 -84c0 -18.667 3.5 -35.5 10.5 -50.5s19.167 -29 36.5 -42s30.166 -22 38.499 -27s24.5 -13.833 48.5 -26.5l348 -180
c32.667 2.66699 59.167 15.667 79.5 39s30.5 52 30.5 86c0 19.333 -3.16699 36.666 -9.5 51.999s-16.5 29.166 -30.5 41.499s-26.667 22 -38 29s-27 15.833 -47 26.5z" />
    <glyph glyph-name="copyright" unicode="&#xa9;" horiz-adv-x="1638" 
d="M805 1497c104 0 203.5 -20.333 298.5 -61s176.667 -95.167 245 -163.5s122.833 -149.833 163.5 -244.5s61 -193.667 61 -297c0 -138.667 -34.333 -266.834 -103 -384.501s-161.667 -210.667 -279 -279s-245.333 -102.5 -384 -102.5
c-139.333 0 -267.833 34.167 -385.5 102.5s-210.834 161.333 -279.501 279s-103 245.834 -103 384.501s34.167 266.667 102.5 384s161.333 210.333 279 279s245.834 103 384.501 103zM805 1364c-86 0 -168 -16.667 -246 -50s-145.333 -78.333 -202 -135
s-101.667 -124 -135 -202s-50 -160 -50 -246s16.667 -168 50 -246s78.333 -145.333 135 -202s124 -101.667 202 -135s160 -50 246 -50s168.167 16.667 246.5 50s145.833 78.333 202.5 135s101.834 124 135.501 202s50.5 160 50.5 246s-16.833 168 -50.5 246
s-78.834 145.333 -135.501 202s-124.167 101.667 -202.5 135s-160.5 50 -246.5 50zM1192 606c-11.333 -97.333 -50.832 -175.833 -118.499 -235.5s-151.167 -89.5 -250.5 -89.5c-122.667 0 -224.334 42.667 -305.001 128s-121 192.666 -121 321.999
c0 134 38.167 243.667 114.5 329s174.833 128 295.5 128c105.333 0 193.666 -31 264.999 -93s110.666 -141.667 117.999 -239h-189c-8 50.667 -28 90.334 -60 119.001s-72.667 43 -122 43c-59.333 0 -106.166 -25.167 -140.499 -75.5s-51.5 -119.5 -51.5 -207.5
c0 -89.333 17.833 -159 53.5 -209s85.834 -75 150.501 -75c50.667 0 89.5 13 116.5 39s45.833 64.667 56.5 116h188z" />
    <glyph glyph-name="guillemotleft" unicode="&#xab;" horiz-adv-x="909" 
d="M809 930v-246l-180 -141l180 -142v-247l-320 252v272zM410 930v-242l-185 -141l185 -146v-249l-324 258v268z" />
    <glyph glyph-name="logicalnot" unicode="&#xac;" horiz-adv-x="1228" 
d="M82 631v229h1065v-657h-232v428h-833z" />
    <glyph glyph-name="registered" unicode="&#xae;" horiz-adv-x="819" 
d="M408 1493c105.333 0 195.5 -37.167 270.5 -111.5s112.5 -164.166 112.5 -269.499s-37.5 -195.5 -112.5 -270.5s-165.167 -112.5 -270.5 -112.5s-195.166 37.5 -269.499 112.5s-111.5 165.167 -111.5 270.5s37.167 195.166 111.5 269.499s164.166 111.5 269.499 111.5z
M408 1427c-87.333 0 -161.833 -30.833 -223.5 -92.5s-92.5 -135.834 -92.5 -222.501s30.833 -160.834 92.5 -222.501s136.167 -92.5 223.5 -92.5c86.667 0 160.834 30.833 222.501 92.5s92.5 135.834 92.5 222.501s-30.833 160.834 -92.5 222.501
s-135.834 92.5 -222.501 92.5zM248 1325l150.998 -0.000976562c126 0 189 -41.667 189 -125c0 -49.333 -26 -82.666 -78 -99.999c28 -11.333 46.833 -26.5 56.5 -45.5s14.834 -51.167 15.501 -96.5c0 -21.333 3.33301 -40.333 10 -57h-98c-6 12.667 -9.66699 32.667 -11 60
c-1.33301 41.333 -7.66602 68 -18.999 80s-36.333 18 -75 18h-41v-158h-100v424zM347.998 1137h47c33.333 0 57 4.16699 71 12.5s21 22.5 21 42.5c0 19.333 -7.16699 33.333 -21.5 42s-37.833 13 -70.5 13h-47v-110z" />
    <glyph glyph-name="degree" unicode="&#xb0;" horiz-adv-x="819" 
d="M743 1108c0 -92 -32.5 -170.667 -97.5 -236s-143.5 -98 -235.5 -98s-170.667 32.667 -236 98s-98 144 -98 236s32.667 170.667 98 236s144 98 236 98s170.5 -32.667 235.5 -98s97.5 -144 97.5 -236zM557 1108c0 41.333 -14.3311 76.502 -42.998 105.502
s-63.334 43.5 -104.001 43.5s-75.5 -14.5 -104.5 -43.5s-43.5 -64.167 -43.5 -105.5c0 -40.667 14.333 -75.334 43 -104.001s63.667 -43 105 -43s76.166 14.167 104.499 42.5s42.5 63.166 42.5 104.499z" />
    <glyph glyph-name="plusminus" unicode="&#xb1;" horiz-adv-x="1228" 
d="M494 242v311h-412v227h412v318h241v-318h412v-227h-412v-311h-241zM82 -35v228h1065v-228h-1065z" />
    <glyph glyph-name="paragraph" unicode="&#xb6;" horiz-adv-x="1269" 
d="M1194 1292h-111.001v-1667h-202v1667h-222v-1667h-202v881c-125.333 8 -224.666 53.333 -297.999 136s-110 189 -110 319c0 108 23.5 200 70.5 276s109.833 131.833 188.5 167.5s170 53.5 274 53.5h612v-166z" />
    <glyph glyph-name="periodcentered" unicode="&#xb7;" horiz-adv-x="569" 
d="M446 748v-320h-323v320h323z" />
    <glyph glyph-name="guillemotright" unicode="&#xbb;" horiz-adv-x="909" 
d="M500 934l323 -258v-270l-323 -252v241l186 144l-186 147v248zM100 932l320 -254v-270l-320 -250v239l183 144l-183 141v250z" />
    <glyph glyph-name="divide" unicode="&#xf7;" horiz-adv-x="1228" 
d="M82 426v256h1065v-256h-1065zM487 16v275h254v-275h-254zM487 817v275h254v-275h-254z" />
    <glyph glyph-name="florin" unicode="&#x192;" 
d="M924 881l-34.999 -193.001h-203l-117 -633c-14 -78 -30 -140.667 -48 -188s-43.833 -88.333 -77.5 -123s-76.167 -59 -127.5 -73s-116.333 -21 -195 -21c-44.667 0 -89 1.33301 -133 4l37 217c20.667 -1.33301 41 -2 61 -2c59.333 0 100.333 9.83301 123 29.5
s41 65.834 55 138.501l123 651h-186l35 193h188l41 223c24.667 134 69.167 228.5 133.5 283.5s162.5 82.5 294.5 82.5c33.333 0 83 -2 149 -6l-41 -217c-28.667 2.66699 -54.334 4 -77.001 4c-30.667 0 -55.834 -3.5 -75.501 -10.5s-35.167 -19 -46.5 -36
s-19.666 -34 -24.999 -51s-11 -41.167 -17 -72.5l-37 -200h201z" />
    <glyph glyph-name="Delta" unicode="&#x394;" horiz-adv-x="1396" 
d="M799 1421l581 -1421h-1362l557 1421h224zM684 1133l-344 -920h709z" />
    <glyph glyph-name="mu" unicode="&#x3bc;" horiz-adv-x="1214" 
d="M117 -375l0.00292969 1432h289v-422c0 -9.33301 -0.166992 -26.666 -0.5 -51.999s-0.5 -44.333 -0.5 -57s0.5 -31.334 1.5 -56.001s2.66699 -43.834 5 -57.501s5.83301 -31 10.5 -52s10.334 -37.5 17.001 -49.5s15.167 -25.167 25.5 -39.5s22.166 -25.333 35.499 -33
s29.166 -14.167 47.499 -19.5s38.5 -8 60.5 -8c30 0 56.667 6.33301 80 19s42.166 30.834 56.499 54.501s26.333 48.667 36 75s16.667 57 21 92s7.33301 66 9 93s2.5 56.5 2.5 88.5v424h289v-1057h-260v147c-33.333 -55.333 -66.833 -96.333 -100.5 -123
s-74.834 -40 -123.501 -40c-49.333 0 -92 9.33301 -128 28s-69 48 -99 88v-475h-274z" />
    <glyph glyph-name="afii10023" unicode="&#x401;" horiz-adv-x="1327" 
d="M1235 1458v-262h-776v-317h712v-252h-712v-359h790v-268h-1108v1458h1094zM1036 1819v-238h-272v238h272zM608 1819v-238h-272v238h272z" />
    <glyph glyph-name="afii10051" unicode="&#x402;" horiz-adv-x="1593" 
d="M1229 338c0 102.667 -22.333 181.834 -67 237.501s-106.334 83.5 -185.001 83.5c-79.333 0 -141.166 -28.5 -185.499 -85.5s-66.5 -136.833 -66.5 -239.5v-334h-322v1186h-376v272h1177v-272h-479v-438c76 106 184 159 324 159c144.667 0 264.667 -52.833 360 -158.5
s143 -242.5 143 -410.5c0 -119.333 -23.333 -227.5 -70 -324.5s-109.5 -172.667 -188.5 -227s-165.5 -81.5 -259.5 -81.5c-68.667 0 -128.667 8.33301 -180 25v250c23.333 -11.333 61 -17 113 -17c80 0 143.667 32.167 191 96.5s71 157.166 71 278.499z" />
    <glyph glyph-name="afii10052" unicode="&#x403;" horiz-adv-x="1175" 
d="M897 1847l-305 -295h-201l182 295h324zM1157 1458v-272h-696v-1186h-320v1458h1016z" />
    <glyph glyph-name="afii10053" unicode="&#x404;" horiz-adv-x="1517" 
d="M948 633l-533.997 0.000976562c14.667 -123.333 55.5 -220.333 122.5 -291s152.5 -106 256.5 -106c88 0 159.5 23.5 214.5 70.5s91.833 116.167 110.5 207.5h320c-24 -170 -91.333 -304 -202 -402s-259 -147 -445 -147c-212 0 -382.5 70 -511.5 210
s-193.5 325.333 -193.5 556c0 142 28.333 270.333 85 385s140 206.167 250 274.5s237.333 102.5 382 102.5c167.333 0 308.666 -46 423.999 -138s183 -210 203 -354h-318c-20.667 70.667 -58.334 125.667 -113.001 165s-122 59 -202 59c-53.333 0 -101.833 -9 -145.5 -27
s-80.334 -42.833 -110.001 -74.5s-54.167 -67.334 -73.5 -107.001s-34 -83.5 -44 -131.5h524v-252z" />
    <glyph glyph-name="afii10054" unicode="&#x405;" horiz-adv-x="1329" 
d="M1221 1024l-302.999 -0.00390625c-6 70.667 -32.5 124.5 -79.5 161.5s-112.833 55.5 -197.5 55.5c-73.333 0 -130.833 -14.667 -172.5 -44s-62.5 -70 -62.5 -122c0 -18 2.83301 -33.833 8.5 -47.5s15.667 -26.167 30 -37.5s29 -20.833 44 -28.5s37.167 -16 66.5 -25
s56 -16.667 80 -23l101.5 -26.5l115.5 -31c70 -20 129.167 -41 177.5 -63s92.166 -49.167 131.499 -81.5s68.666 -71.166 87.999 -116.499s29 -97.666 29 -156.999c0 -66.667 -11.333 -127 -34 -181s-53.167 -98.667 -91.5 -134s-83.5 -65 -135.5 -89
s-106.167 -41.167 -162.5 -51.5s-115.166 -15.5 -176.499 -15.5c-198 0 -352.5 45.5 -463.5 136.5s-167.5 218.833 -169.5 383.5h317c5.33301 -182.667 115.333 -274 330 -274c84 0 150.167 17.333 198.5 52s72.5 82.334 72.5 143.001c0 50 -21.667 86.667 -65 110
s-136 55 -278 95c-24.667 6.66699 -43.667 12 -57 16c-120.667 34.667 -204.334 63 -251.001 85c-101.333 48.667 -166.333 116.667 -195 204c-12.667 40 -19 85 -19 135c0 132 51 237.667 153 317s238 119 408 119c78.667 0 151 -9.16699 217 -27.5
s124.833 -45.833 176.5 -82.5s92.334 -85.167 122.001 -145.5s45.167 -130.166 46.5 -209.499z" />
    <glyph glyph-name="afii10055" unicode="&#x406;" horiz-adv-x="604" 
d="M463 1458v-1458h-322v1458h322z" />
    <glyph glyph-name="afii10056" unicode="&#x407;" horiz-adv-x="604" 
d="M463 1458v-1458h-322v1458h322zM651 1819v-238h-272v238h272zM223 1819v-238h-272v238h272z" />
    <glyph glyph-name="afii10057" unicode="&#x408;" 
d="M1020 1458l0.00390625 -1001c0 -160.667 -40 -282.834 -120 -366.501s-199.667 -125.5 -359 -125.5c-154 0 -273.833 40.167 -359.5 120.5s-128.5 201.5 -128.5 363.5v96h295v-45c0 -22.667 0.166992 -39.834 0.5 -51.501s1.16602 -27.834 2.49902 -48.501
s3.66602 -36.667 6.99902 -48s7.66602 -24.833 12.999 -40.5s12.5 -28 21.5 -37s19.667 -17.833 32 -26.5s27.5 -15 45.5 -19s38 -6 60 -6c30.667 0 57 4.66699 79 14s38.833 20.666 50.5 33.999s20.667 31.833 27 55.5s10.166 45.334 11.499 65.001s2 44.834 2 75.501v991
h320z" />
    <glyph glyph-name="afii10058" unicode="&#x409;" horiz-adv-x="2158" 
d="M983 1186l-349.999 -0.00292969l-21 -619c-6.66699 -204 -44 -354.333 -112 -451s-165.667 -145 -293 -145c-68.667 0 -128.667 8.33301 -180 25v258c34.667 -16.667 72 -25 112 -25c24 0 44.5 4 61.5 12s33.333 23.333 49 46s28 57.667 37 105s14.5 107 16.5 179l25 887
h975v-549h288c75.333 0 143.666 -8.16699 204.999 -24.5s115.833 -41.666 163.5 -75.999s84.5 -80.166 110.5 -137.499s39 -124.666 39 -201.999c0 -155.333 -48 -272.333 -144 -351s-226 -118 -390 -118h-592v1186zM1798 464.997c0 32 -6.16895 59.166 -18.502 81.499
s-30.166 39.333 -53.499 51s-49.166 19.834 -77.499 24.501s-61.833 7 -100.5 7h-245v-357h247c165.333 0 248 64.333 248 193z" />
    <glyph glyph-name="afii10059" unicode="&#x40a;" horiz-adv-x="2158" 
d="M983 629l-521.999 -0.00292969v-629h-320v1458h320v-549h522v549h320v-549h288c75.333 0 143.666 -8.16699 204.999 -24.5s115.833 -41.666 163.5 -75.999s84.5 -80.166 110.5 -137.499s39 -124.666 39 -201.999c0 -155.333 -48 -272.333 -144 -351s-226 -118 -390 -118
h-592v629zM1798 464.997c0 32 -6.16895 59.166 -18.502 81.499s-30.166 39.333 -53.499 51s-49.166 19.834 -77.499 24.501s-61.833 7 -100.5 7h-245v-357h247c165.333 0 248 64.333 248 193z" />
    <glyph glyph-name="afii10060" unicode="&#x40b;" horiz-adv-x="1593" 
d="M1511 0l-318.999 -0.00195312v412c0 87.333 -17.167 149 -51.5 185s-92.833 54 -175.5 54c-20.667 0 -43.834 -1.5 -69.501 -4.5s-47.334 -6 -65.001 -9s-38.167 -6.66699 -61.5 -11s-38 -7.16602 -44 -8.49902v-618h-322v1186h-376v272h1177v-272h-479v-309
c136.667 27.333 234.334 41 293.001 41c168.667 0 293 -39.167 373 -117.5s120 -209.166 120 -392.499v-408z" />
    <glyph glyph-name="afii10061" unicode="&#x40c;" horiz-adv-x="1478" 
d="M1438 1458l-572 -575l625 -883h-401l-443 655l-186 -184v-471h-316v1458h316v-606l573 606h404zM1020 1847l-305 -295h-201l182 295h324z" />
    <glyph glyph-name="afii10062" unicode="&#x40e;" horiz-adv-x="1366" 
d="M944 1851h115c0 -101.333 -29.5 -175.833 -88.5 -223.5s-140.833 -71.5 -245.5 -71.5s-186.5 23.833 -245.5 71.5s-88.5 122.167 -88.5 223.5h115c8.66699 -45.333 32.667 -79.166 72 -101.499s88.333 -33.5 147 -33.5s107.667 11.167 147 33.5s63.333 56.166 72 101.499
zM209 6l-0.00292969 270c52 -21.333 103 -32 153 -32c46.667 0 83 12 109 36s39 53.667 39 89c0 12 -1.16699 24.167 -3.5 36.5s-6.66602 26.166 -12.999 41.499l-14.5 34.5c-3.33301 7.66699 -9.83301 21.334 -19.5 41.001s-15.5 31.167 -17.5 34.5l-428 901h355l329 -768
l324 768h342l-492 -1073c-69.333 -152.667 -138.666 -259.5 -207.999 -320.5s-161.666 -91.5 -276.999 -91.5c-62 0 -121.333 11 -178 33z" />
    <glyph glyph-name="afii10145" unicode="&#x40f;" horiz-adv-x="1517" 
d="M913 0v-375h-309v375h-463v1458h320v-1186h596v1186h319v-1458h-463z" />
    <glyph glyph-name="afii10017" unicode="&#x410;" horiz-adv-x="1402" 
d="M866 1460l555 -1460h-336l-114 326h-543l-119 -326h-327l555 1460h329zM893 559l-193 543l-194 -543h387z" />
    <glyph glyph-name="afii10018" unicode="&#x411;" horiz-adv-x="1441" 
d="M463 934h381c74.667 0 143 -9.5 205 -28.5s116.5 -47.167 163.5 -84.5s83.667 -86 110 -146s39.5 -128.667 39.5 -206c0 -155.333 -48.167 -272.333 -144.5 -351s-226.5 -118 -390.5 -118h-682v1458h1082v-264h-764v-260zM1051 473c0 72.667 -22.5 125.667 -67.5 159
s-105.833 50 -182.5 50h-338v-420h340c80.667 0 142.167 16.5 184.5 49.5s63.5 86.833 63.5 161.5z" />
    <glyph glyph-name="afii10019" unicode="&#x412;" horiz-adv-x="1441" 
d="M139 1458l689.998 0.000976562c66 0 126.5 -7.16699 181.5 -21.5s104 -35.833 147 -64.5s76.5 -66.834 100.5 -114.501s36 -102.834 36 -165.501c0 -68.667 -17.667 -129.167 -53 -181.5s-83.666 -92.166 -144.999 -119.499c81.333 -22.667 146 -63.667 194 -123
s72 -137.333 72 -234c0 -92 -22.333 -171.333 -67 -238s-103.667 -116 -177 -148s-156.666 -48 -249.999 -48h-729v1458zM450.998 1210l0.000976562 -342.001h290c33.333 0 62.666 2.16699 87.999 6.5s50.5 12 75.5 23s44.333 28.333 58 52s20.5 53.167 20.5 88.5
s-6.5 64.833 -19.5 88.5s-31.667 41.334 -56 53.001s-49.5 19.667 -75.5 24s-56.333 6.5 -91 6.5h-290zM450.999 651l-0.00195312 -396.997h321c30.667 0 57.834 1.33301 81.501 4s47.834 8.16699 72.501 16.5s45 19.666 61 33.999s29.167 33.666 39.5 57.999
s15.5 53.166 15.5 86.499c0 34 -5.5 63.333 -16.5 88s-25 44 -42 58s-38.833 25 -65.5 33s-52.167 13.167 -76.5 15.5s-52.833 3.5 -85.5 3.5h-305z" />
    <glyph glyph-name="afii10020" unicode="&#x413;" horiz-adv-x="1175" 
d="M1157 1458v-272h-696v-1186h-320v1458h1016z" />
    <glyph glyph-name="afii10021" unicode="&#x414;" horiz-adv-x="1593" 
d="M1561 -375h-310v375h-925v-375h-310v647h111c83.333 111.333 143 244.5 179 399.5s54 343.5 54 565.5v221h1039v-1186h162v-647zM1079 272v926.001h-401v-24c0 -194.667 -16 -363.334 -48 -506.001s-81 -274.667 -147 -396h596z" />
    <glyph glyph-name="afii10022" unicode="&#x415;" horiz-adv-x="1327" 
d="M1235 1458v-262h-776v-317h712v-252h-712v-359h790v-268h-1108v1458h1094z" />
    <glyph glyph-name="afii10024" unicode="&#x416;" horiz-adv-x="2158" 
d="M768 635l-391 -635h-395l583 862l-530 596h385l506 -596v596h307v-596l506 596h385l-531 -596l584 -862h-397l-389 635l-158 -178v-457h-307v457z" />
    <glyph glyph-name="afii10025" unicode="&#x417;" horiz-adv-x="1329" 
d="M1249 449c0 -92.667 -25.001 -175.828 -75.001 -249.495s-118.5 -130.834 -205.5 -171.501s-184.5 -61 -292.5 -61c-198 0 -352.5 45.5 -463.5 136.5s-167.5 218.833 -169.5 383.5h317c2.66699 -93.333 32.834 -162.333 90.501 -207s132.834 -67 225.501 -67
c74 0 134.5 22 181.5 66s70.5 99.667 70.5 167c0 136.667 -91.667 205 -275 205h-110v217c16.667 -1.33301 45.334 -2 86.001 -2c87.333 0 153.166 17.167 197.499 51.5s66.5 83.5 66.5 147.5c0 55.333 -19.833 98.5 -59.5 129.5s-92.834 46.5 -159.501 46.5
c-80 0 -143.667 -18.667 -191 -56s-74 -91 -80 -161h-303c1.33301 63.333 12.333 121 33 173s48.667 95.833 84 131.5s77.166 65.667 125.499 90s100.333 42.166 156 53.499s114.834 17 177.501 17c98 0 186.167 -16.5 264.5 -49.5s140.166 -80.333 185.499 -142
s68 -132.5 68 -212.5c0 -72.667 -20.5 -135.834 -61.5 -189.501s-94.167 -87.834 -159.5 -102.501c80.667 -12.667 146.834 -50.334 198.501 -113.001s77.5 -139.667 77.5 -231z" />
    <glyph glyph-name="afii10026" unicode="&#x418;" horiz-adv-x="1517" 
d="M1376 1458v-1458h-319v1012h-6l-549 -1012h-361v1458h320v-1009h6l549 1009h360z" />
    <glyph glyph-name="afii10027" unicode="&#x419;" horiz-adv-x="1517" 
d="M1376 1458v-1458h-319v1012h-6l-549 -1012h-361v1458h320v-1009h6l549 1009h360zM979 1851h115c0 -101.333 -29.5 -175.833 -88.5 -223.5s-140.833 -71.5 -245.5 -71.5s-186.5 23.833 -245.5 71.5s-88.5 122.167 -88.5 223.5h115
c8.66699 -45.333 32.667 -79.166 72 -101.499s88.333 -33.5 147 -33.5s107.667 11.167 147 33.5s63.333 56.166 72 101.499z" />
    <glyph glyph-name="afii10028" unicode="&#x41a;" horiz-adv-x="1478" 
d="M1438 1458l-572 -575l625 -883h-401l-443 655l-186 -184v-471h-316v1458h316v-606l573 606h404z" />
    <glyph glyph-name="afii10029" unicode="&#x41b;" horiz-adv-x="1478" 
d="M1343 1458v-1458h-319v1186h-391l-21 -619c-6.66699 -204 -44 -354.333 -112 -451s-165.667 -145 -293 -145c-68.667 0 -128.667 8.33301 -180 25v258c34.667 -16.667 72 -25 112 -25c24 0 44.5 4 61.5 12s33.333 23.333 49 46s28 57.667 37 105s14.5 107 16.5 179
l25 887h1015z" />
    <glyph glyph-name="afii10030" unicode="&#x41c;" horiz-adv-x="1857" 
d="M141 0v1458h457l340 -1001l332 1001h446v-1458h-301v1036l-358 -1036h-248l-363 1026v-1026h-305z" />
    <glyph glyph-name="afii10031" unicode="&#x41d;" horiz-adv-x="1517" 
d="M1376 1458v-1458h-319v629h-596v-629h-320v1458h320v-549h596v549h319z" />
    <glyph glyph-name="afii10032" unicode="&#x41e;" horiz-adv-x="1593" 
d="M801 1493c140.667 0 265.171 -31.833 373.504 -95.5s192.333 -153.667 252 -270s89.5 -249.833 89.5 -400.5c0 -150 -29.833 -282.833 -89.5 -398.5s-143.834 -205.167 -252.501 -268.5s-233.667 -95 -375 -95c-106.667 0 -204.834 18.333 -294.501 55
s-165.834 88 -228.501 154s-111.334 146.5 -146.001 241.5s-52 198.833 -52 311.5c0 231.333 66 416.833 198 556.5s307 209.5 525 209.5zM797.004 1231c-120.667 0 -216.833 -45.167 -288.5 -135.5s-107.5 -211.166 -107.5 -362.499c0 -156 35.667 -278.667 107 -368
s169 -134.666 293 -135.999c120.667 0 216 45.167 286 135.5s105 213.166 105 368.499c0 153.333 -35.333 274.666 -106 363.999s-167 134 -289 134z" />
    <glyph glyph-name="afii10033" unicode="&#x41f;" horiz-adv-x="1517" 
d="M1376 1458v-1458h-319v1186h-596v-1186h-320v1458h1235z" />
    <glyph glyph-name="afii10034" unicode="&#x420;" horiz-adv-x="1366" 
d="M143 1458h629c164 0 294.167 -39.333 390.5 -118s144.5 -195.667 144.5 -351c0 -102.667 -23.167 -189.5 -69.5 -260.5s-107.833 -122.833 -184.5 -155.5s-165 -49 -265 -49h-327v-524h-318v1458zM461 1196v-420h284c78.667 0 140 15.833 184 47.5s66 85.5 66 161.5
c0 74 -22.167 127.667 -66.5 161s-104.5 50 -180.5 50h-287z" />
    <glyph glyph-name="afii10035" unicode="&#x421;" horiz-adv-x="1517" 
d="M1444 563c-17.333 -183.333 -81.832 -328.834 -193.499 -436.501s-264.834 -161.5 -459.501 -161.5c-212 0 -382.5 70 -511.5 210s-193.5 325.333 -193.5 556c0 142 28.333 270.333 85 385s140 206.167 250 274.5s237.333 102.5 382 102.5c174 0 319.5 -49 436.5 -147
s181.833 -223 194.5 -375h-314c-16.667 80 -53.167 142.333 -109.5 187s-127.5 67 -213.5 67c-54.667 0 -104.167 -9.5 -148.5 -28.5s-81.166 -44.333 -110.499 -76s-54 -69 -74 -112s-34.333 -87.667 -43 -134s-13 -94.833 -13 -145.5c0 -150.667 34.667 -270.5 104 -359.5
s163 -133.5 281 -133.5c96 0 172.167 27.833 228.5 83.5s91.166 136.834 104.499 243.501h318z" />
    <glyph glyph-name="afii10036" unicode="&#x422;" horiz-adv-x="1251" 
d="M1225 1458v-272h-439v-1186h-321v1186h-438v272h1198z" />
    <glyph glyph-name="afii10037" unicode="&#x423;" horiz-adv-x="1366" 
d="M209 6l-0.00292969 270c52 -21.333 103 -32 153 -32c46.667 0 83 12 109 36s39 53.667 39 89c0 12 -1.16699 24.167 -3.5 36.5s-6.66602 26.166 -12.999 41.499l-14.5 34.5c-3.33301 7.66699 -9.83301 21.334 -19.5 41.001s-15.5 31.167 -17.5 34.5l-428 901h355
l329 -768l324 768h342l-492 -1073c-69.333 -152.667 -138.666 -259.5 -207.999 -320.5s-161.666 -91.5 -276.999 -91.5c-62 0 -121.333 11 -178 33z" />
    <glyph glyph-name="afii10038" unicode="&#x424;" horiz-adv-x="1736" 
d="M1659 745c0 -179.333 -57.498 -319.833 -172.498 -421.5s-268.5 -156.167 -460.5 -163.5v-160h-315v160c-192 7.33301 -345.5 61.833 -460.5 163.5s-172.5 242.167 -172.5 421.5c0 173.333 57.167 310.166 171.5 410.499s268.166 153.5 461.499 159.5v143h315v-143
c193.333 -6 347.166 -59.167 461.499 -159.5s171.5 -237.166 171.5 -410.499zM1352 745c0 104 -28 185.333 -84 244s-136.667 90 -242 94v-684c100.667 4 180.167 37.833 238.5 101.5s87.5 145.167 87.5 244.5zM711.002 399v684c-104.667 -4 -184.834 -35.333 -240.501 -94
s-83.5 -140 -83.5 -244c0 -99.333 28.833 -180.833 86.5 -244.5s136.834 -97.5 237.501 -101.5z" />
    <glyph glyph-name="afii10039" unicode="&#x425;" horiz-adv-x="1366" 
d="M1333 1458l-469 -696l512 -762h-383l-319 506l-324 -506h-364l514 762l-475 696h372l291 -469l293 469h352z" />
    <glyph glyph-name="afii10040" unicode="&#x426;" horiz-adv-x="1550" 
d="M1534 -375h-309v375h-1088v1458h320v-1186h596v1186h319v-1186h162v-647z" />
    <glyph glyph-name="afii10041" unicode="&#x427;" horiz-adv-x="1366" 
d="M602 561c-171.333 0 -301.168 39.8311 -389.501 119.498s-132.5 209.834 -132.5 390.501v387h319v-391c0 -87.333 17.333 -149.166 52 -185.499s93.334 -54.5 176.001 -54.5c62.667 0 158.667 11 288 33v598h320v-1458h-320v602c-136.667 -27.333 -241 -41 -313 -41z" />
    <glyph glyph-name="afii10042" unicode="&#x428;" horiz-adv-x="2201" 
d="M137 0v1458h320v-1186h485v1186h320v-1186h485v1186h319v-1458h-1929z" />
    <glyph glyph-name="afii10043" unicode="&#x429;" horiz-adv-x="2236" 
d="M2228 -375h-309v375h-1782v1458h320v-1186h485v1186h320v-1186h485v1186h319v-1186h162v-647z" />
    <glyph glyph-name="afii10044" unicode="&#x42a;" horiz-adv-x="1650" 
d="M422 1184h-395v274h712v-524h344c100 0 188.333 -16.333 265 -49s138.167 -84.5 184.5 -155.5s69.5 -157.833 69.5 -260.5c0 -155.333 -48.167 -272.333 -144.5 -351s-226.5 -118 -390.5 -118h-645v1184zM1290 473c0 72.667 -22.5 125.667 -67.5 159
s-105.833 50 -182.5 50h-301v-420h303c80.667 0 142.167 16.5 184.5 49.5s63.5 86.833 63.5 161.5z" />
    <glyph glyph-name="afii10045" unicode="&#x42b;" horiz-adv-x="1857" 
d="M1243 469c0 -155.333 -48 -272.333 -144 -351s-226 -118 -390 -118h-568v1458h318v-524h266c74.667 0 143 -9.5 205 -28.5s116.5 -47.167 163.5 -84.5s83.667 -86 110 -146s39.5 -128.667 39.5 -206zM932 473c0 72.667 -22.5 125.667 -67.5 159s-105.833 50 -182.5 50
h-223v-420h225c80.667 0 142.167 16.5 184.5 49.5s63.5 86.833 63.5 161.5zM1399 1458h319v-1458h-319v1458z" />
    <glyph glyph-name="afii10046" unicode="&#x42c;" horiz-adv-x="1366" 
d="M1317 469c0 -155.333 -48.167 -272.333 -144.5 -351s-226.5 -118 -390.5 -118h-645v1458h318v-524h344c74.667 0 143 -9.5 205 -28.5s116.5 -47.167 163.5 -84.5s83.667 -86 110 -146s39.5 -128.667 39.5 -206zM1006 473c0 72.667 -22.5 125.667 -67.5 159
s-105.833 50 -182.5 50h-301v-420h303c80.667 0 142.167 16.5 184.5 49.5s63.5 86.833 63.5 161.5z" />
    <glyph glyph-name="afii10047" unicode="&#x42d;" horiz-adv-x="1517" 
d="M1430 731c0 -230.667 -64.498 -416.001 -193.498 -556.001s-299.5 -210 -511.5 -210c-186 0 -334.333 49 -445 147s-178 232 -202 402h319c18.667 -90.667 55.667 -159.667 111 -207s127 -71 215 -71c104 0 189.5 35.333 256.5 106s107.833 167.667 122.5 291h-535v252
h525c-10 48 -24.667 91.833 -44 131.5s-43.833 75.334 -73.5 107.001s-66.334 56.5 -110.001 74.5s-92.167 27 -145.5 27c-80 0 -147.5 -19.667 -202.5 -59s-92.833 -94.333 -113.5 -165h-317c20 144 87.667 262 203 354s256.666 138 423.999 138
c144.667 0 272 -34.167 382 -102.5s193.333 -159.833 250 -274.5s85 -243 85 -385z" />
    <glyph glyph-name="afii10048" unicode="&#x42e;" horiz-adv-x="2084" 
d="M1350 1493c195.333 0 353.668 -70.499 475.001 -211.499s182 -325.833 182 -554.5c0 -150 -27.5 -282.833 -82.5 -398.5s-132.5 -205.167 -232.5 -268.5s-214.667 -95 -344 -95c-185.333 0 -337.833 61.333 -457.5 184s-187.167 286 -202.5 490h-227v-639h-320v1458h320
v-559h235c29.333 183.333 102.166 328.166 218.499 434.499s261.5 159.5 435.5 159.5zM1346 1231c-103.333 0 -185.5 -45 -246.5 -135s-91.5 -211 -91.5 -363c0 -156.667 30.333 -279.5 91 -368.5s144.334 -134.167 251.001 -135.5c103.333 0 184.666 45 243.999 135
s89 213 89 369c0 154 -30 275.5 -90 364.5s-142.333 133.5 -247 133.5z" />
    <glyph glyph-name="afii10049" unicode="&#x42f;" horiz-adv-x="1478" 
d="M834 571l-426 -570.999h-402l453 590c-101.333 26 -182.333 74.833 -243 146.5s-91 163.5 -91 275.5c0 75.333 13.5 142.166 40.5 200.499s63.833 105 110.5 140s99.667 61.333 159 79s123.333 26.5 192 26.5h714v-1458h-317v571h-190zM1024 803.001l-0.00292969 403.004
h-317c-30 0 -56.833 -1.33301 -80.5 -4s-47.667 -8.16699 -72 -16.5s-44.666 -19.5 -60.999 -33.5s-29.666 -33 -39.999 -57s-15.5 -52.333 -15.5 -85c0 -34.667 5.16699 -64.834 15.5 -90.501s23.833 -45.834 40.5 -60.501s37.834 -26.334 63.501 -35.001
s51 -14.334 76 -17.001s54.167 -4 87.5 -4h303z" />
    <glyph glyph-name="afii10065" unicode="&#x430;" horiz-adv-x="1175" 
d="M1094 0l-295.004 0.00292969c-10.667 30 -17.667 64 -21 102c-88.667 -88.667 -202.667 -133 -342 -133c-116.667 0 -208.667 28.5 -276 85.5s-101 135.167 -101 234.5c0 38 5.33301 72.667 16 104s23.334 57.5 38.001 78.5s35.667 40 63 57s51.833 30.167 73.5 39.5
s51.334 18.166 89.001 26.499s67.334 14.166 89.001 17.499s52.5 7.66602 92.5 12.999c102 13.333 170.5 27.666 205.5 42.999s52.5 43.333 52.5 84c0 48 -15.5 83.5 -46.5 106.5s-78.833 34.5 -143.5 34.5c-66.667 0 -115.667 -12 -147 -36s-52 -66 -62 -126h-273
c8 117.333 53.5 206 136.5 266s200.833 90 353.5 90c47.333 0 90.833 -2.33301 130.5 -7s80.667 -14.5 123 -29.5s78 -34.667 107 -59s53 -57.666 72 -99.999s28.5 -91.833 28.5 -148.5v-456c0 -47.333 0.333008 -81.333 1 -102s3.83398 -49.667 9.50098 -87
s14.5 -70 26.5 -98zM775.996 514.003c-13.333 -7.33301 -26.332 -13.667 -38.999 -19s-27 -10 -43 -14s-28.167 -6.83301 -36.5 -8.5s-23.333 -4.16699 -45 -7.5s-35.5 -5.33301 -41.5 -6c-68.667 -11.333 -115.334 -23 -140.001 -35c-48.667 -24 -73 -65 -73 -123
c0 -44 14.167 -78.5 42.5 -103.5s67.5 -37.5 117.5 -37.5c78 0 140.5 20.5 187.5 61.5s70.5 98.833 70.5 173.5v119z" />
    <glyph glyph-name="afii10066" unicode="&#x431;" horiz-adv-x="1251" 
d="M1167 516c0 -166.667 -49.4961 -299.503 -148.496 -398.503s-233.167 -148.5 -402.5 -148.5c-73.333 0 -139.666 12.667 -198.999 38s-108.166 59 -146.499 101s-70.333 91.5 -96 148.5s-43.834 115.333 -54.501 175s-16 121.834 -16 186.501
c0 50.667 1 96.834 3 138.501s6.66699 88.167 14 139.5s17 97.333 29 138s28.667 82.667 50 126s46.666 81 75.999 113s65.5 61.167 108.5 87.5s91.5 46.5 145.5 60.5c29.333 8 70.666 15 123.999 21s96.166 13.167 128.499 21.5s52.833 21.5 61.5 39.5h276
c-5.33301 -37.333 -14.333 -70.833 -27 -100.5s-27 -55 -43 -76s-36.667 -39.5 -62 -55.5s-49.833 -28.667 -73.5 -38s-53 -17.666 -88 -24.999s-66.333 -12.833 -94 -16.5s-62.167 -7.5 -103.5 -11.5c-63.333 -6 -118.333 -21.5 -165 -46.5s-83.834 -57.5 -111.501 -97.5
s-48.834 -82.333 -63.501 -127s-25 -95 -31 -151h6c14 38 32 73.667 54 107s49.5 65 82.5 95s73.667 53.667 122 71s101.5 26 159.5 26c138 0 253.333 -50 346 -150s139 -230.333 139 -391zM877.004 517.997c0 102.667 -21.501 182.334 -64.501 239.001
s-102.833 85 -179.5 85c-72.667 0 -130.5 -28.833 -173.5 -86.5s-64.5 -137.5 -64.5 -239.5c0 -105.333 21.333 -186.333 64 -243s102 -85 178 -85c74.667 0 133.334 28.667 176.001 86s64 138.666 64 243.999z" />
    <glyph glyph-name="afii10067" unicode="&#x432;" horiz-adv-x="1175" 
d="M106 1057h609c64.667 0 121.667 -8.83301 171 -26.5s89.5 -47 120.5 -88s46.5 -91.5 46.5 -151.5c0 -50 -13 -93.833 -39 -131.5s-61 -66.5 -105 -86.5c58 -16.667 104.667 -46.667 140 -90s53 -99.333 53 -168c0 -100 -33.833 -177.5 -101.5 -232.5
s-153.5 -82.5 -257.5 -82.5h-637v1057zM393 633h192.998c24 0 45.167 1.5 63.5 4.5s36.333 8.5 54 16.5s31.167 20.5 40.5 37.5s14 37.833 14 62.5s-4.5 45.167 -13.5 61.5s-22.167 28.333 -39.5 36s-35.166 13 -53.499 16s-40.166 4.5 -65.499 4.5h-193v-239zM392.998 188
l215.001 0.000976562c28 0 52.333 1.66699 73 5s40.667 9.66602 60 18.999s34.166 23.833 44.499 43.5s15.5 43.834 15.5 72.501c0 29.333 -5.5 53.833 -16.5 73.5s-27 34.167 -48 43.5s-42.333 15.666 -64 18.999s-47.167 5 -76.5 5h-203v-281z" />
    <glyph glyph-name="afii10068" unicode="&#x433;" horiz-adv-x="927" 
d="M913 834h-510v-834h-288v1057h798v-223z" />
    <glyph glyph-name="afii10069" unicode="&#x434;" horiz-adv-x="1286" 
d="M1255 -311h-272v311h-696v-311h-273v534h127c33.333 66 63.833 161.833 91.5 287.5s41.5 246.167 41.5 361.5v185h844v-834h137v-534zM829 223v619h-284v-27c0 -102 -12.667 -209.833 -38 -323.5s-52.333 -203.167 -81 -268.5h403z" />
    <glyph glyph-name="afii10070" unicode="&#x435;" horiz-adv-x="1175" 
d="M1104 328c-32.667 -113.333 -93.168 -201.5 -181.501 -264.5s-193.166 -94.5 -314.499 -94.5c-162.667 0 -293.334 50.667 -392.001 152s-148 235 -148 401c0 164 50 299.167 150 405.5s226.667 159.5 380 159.5c160 0 287 -54.333 381 -163s141 -255.667 141 -441v-28
h-758c2 -90.667 24.333 -160.167 67 -208.5s103 -72.5 181 -72.5c52.667 0 96.334 12.333 131.001 37s62.667 63.667 84 117h279zM824.999 639c-6.66699 69.333 -29 126.333 -67 171s-91.333 67 -160 67c-64.667 0 -118.167 -21.333 -160.5 -64s-67.5 -100.667 -75.5 -174
h463z" />
    <glyph glyph-name="afii10072" unicode="&#x436;" horiz-adv-x="1683" 
d="M592 444l-256 -444h-342l407 655l-360 402h332l332 -420v420h274v-420l332 420h331l-366 -408l414 -649h-342l-256 444l-113 -127v-317h-274v317z" />
    <glyph glyph-name="afii10073" unicode="&#x437;" horiz-adv-x="1099" 
d="M1034 313c0 -112 -44.333 -197.337 -133 -256.004s-208.667 -88 -360 -88c-68 0 -130.833 7 -188.5 21s-109.667 35.5 -156 64.5s-83 68.167 -110 117.5s-40.833 106.666 -41.5 171.999h277c4.66699 -57.333 26.667 -101 66 -131s92.333 -45 159 -45
c62.667 0 109.667 12.833 141 38.5s47 59.834 47 102.501c0 46 -15 82.167 -45 108.5s-75.667 39.5 -137 39.5h-113v182h76c66 0 116 10.167 150 30.5s51 55.833 51 106.5c0 34 -14.333 62.333 -43 85s-69.667 34 -123 34c-61.333 0 -108.166 -10.833 -140.499 -32.5
s-52.5 -59.167 -60.5 -112.5h-270c2 59.333 16.5 111.333 43.5 156s63 79.834 108 105.501s94.667 44.667 149 57s113.166 18.5 176.499 18.5c294.667 0 442 -94.667 442 -284c0 -58 -19.833 -109.667 -59.5 -155s-83.167 -71.666 -130.5 -78.999v-4
c28 -3.33301 54 -9.66602 78 -18.999s47.667 -23.166 71 -41.499s41.833 -43.833 55.5 -76.5s20.5 -71 20.5 -115z" />
    <glyph glyph-name="afii10074" unicode="&#x438;" horiz-adv-x="1214" 
d="M1100 0h-279v715l-377 -715h-329v1057h278v-715l377 715h330v-1057z" />
    <glyph glyph-name="afii10075" unicode="&#x439;" horiz-adv-x="1214" 
d="M825 1458h115c0 -101.333 -29.5 -175.833 -88.5 -223.5s-140.833 -71.5 -245.5 -71.5s-186.5 23.833 -245.5 71.5s-88.5 122.167 -88.5 223.5h115c8.66699 -45.333 32.667 -79.166 72 -101.499s88.333 -33.5 147 -33.5s107.667 11.167 147 33.5s63.333 56.166 72 101.499
zM1100 0h-279v715l-377 -715h-329v1057h278v-715l377 715h330v-1057z" />
    <glyph glyph-name="afii10076" unicode="&#x43a;" horiz-adv-x="1175" 
d="M1190 0h-352l-306 455l-129 -131v-324h-284v1057h284v-418l388 418h342l-410 -410z" />
    <glyph glyph-name="afii10077" unicode="&#x43b;" horiz-adv-x="1214" 
d="M1094 0l-288.999 0.000976562v834h-279l-12 -373c-1.33301 -32 -2.5 -57.167 -3.5 -75.5s-3 -43.166 -6 -74.499s-6.66699 -56.666 -11 -75.999s-10.833 -42.5 -19.5 -69.5s-18.5 -48.833 -29.5 -65.5s-25 -34.334 -42 -53.001s-36.167 -33.167 -57.5 -43.5
s-46.5 -19 -75.5 -26s-60.833 -10.5 -95.5 -10.5c-22.667 0 -51 2.16699 -85 6.5s-58.333 9.16602 -73 14.499v231c33.333 -6.66699 60.666 -10 81.999 -10c42.667 0 74.667 17.667 96 53s33 90.666 35 165.999l17 629h848v-1057z" />
    <glyph glyph-name="afii10078" unicode="&#x43c;" horiz-adv-x="1478" 
d="M1364 0h-274v803h-7l-206 -803h-275l-207 803h-6v-803h-274v1057h422l198 -768h8l199 768h422v-1057z" />
    <glyph glyph-name="afii10079" unicode="&#x43d;" horiz-adv-x="1214" 
d="M1100 0h-289v444h-408v-444h-288v1057h288v-383h408v383h289v-1057z" />
    <glyph glyph-name="afii10080" unicode="&#x43e;" horiz-adv-x="1251" 
d="M1171 528c0 -170 -49.501 -305.999 -148.501 -407.999s-230.833 -153 -395.5 -153s-297 51.167 -397 153.5s-150 238.166 -150 407.499c0 168 50.333 303.167 151 405.5s234 153.5 400 153.5c162.667 0 293.334 -51.167 392.001 -153.5s148 -237.5 148 -405.5z
M880.999 530.001c0 105.333 -22.668 187.668 -68.001 247.001s-108.666 89 -189.999 89c-78 0 -139.5 -30 -184.5 -90s-67.5 -142.667 -67.5 -248c0 -108.667 22.333 -192.834 67 -252.501s107.667 -89.5 189 -89.5c80 0 142.333 30.167 187 90.5s67 144.833 67 253.5z" />
    <glyph glyph-name="afii10081" unicode="&#x43f;" horiz-adv-x="1214" 
d="M1100 0h-289v834h-408v-834h-288v1057h985v-1057z" />
    <glyph glyph-name="afii10082" unicode="&#x440;" horiz-adv-x="1251" 
d="M385 1057l-0.000976562 -131c76 106 185.333 159 328 159s256.834 -51.333 342.501 -154s128.5 -239 128.5 -409c0 -166 -42 -299 -126 -399s-195 -150 -333 -150c-142 0 -250.667 52.667 -326 158v-506h-288v1432h274zM640.999 852
c-79.333 0 -141.167 -28.667 -185.5 -86s-66.5 -137.333 -66.5 -240s22.333 -182.5 67 -239.5s107 -85.5 187 -85.5c78 0 139.167 28.333 183.5 85s66.5 135.334 66.5 236.001c0 103.333 -22.5 184.166 -67.5 242.499s-106.5 87.5 -184.5 87.5z" />
    <glyph glyph-name="afii10083" unicode="&#x441;" horiz-adv-x="1175" 
d="M1118 408c-18.667 -136.667 -72.498 -243.332 -161.498 -319.999s-203.833 -115 -344.5 -115c-162.667 0 -293 49.833 -391 149.5s-147 232.167 -147 397.5c0 171.333 49.333 308.666 148 411.999s230 155 394 155c141.333 0 256.166 -35.667 344.499 -107
s138.833 -168.666 151.5 -291.999h-285c-10 58 -33.167 102.833 -69.5 134.5s-82.833 47.5 -139.5 47.5c-79.333 0 -141 -30.167 -185 -90.5s-66 -144.833 -66 -253.5c0 -105.333 21.333 -186.833 64 -244.5s103 -86.5 181 -86.5c62.667 0 113.167 18.167 151.5 54.5
s63.166 89.166 74.499 158.499h280z" />
    <glyph glyph-name="afii10084" unicode="&#x442;" horiz-adv-x="1024" 
d="M1006 834h-349v-834h-288v834h-349v223h986v-223z" />
    <glyph glyph-name="afii10085" unicode="&#x443;" horiz-adv-x="1062" 
d="M1071 1057l-389 -1053c-40.667 -109.333 -71.667 -182.666 -93 -219.999c-42 -72 -97.667 -119.333 -167 -142c-40 -12.667 -87.667 -19 -143 -19c-36 0 -101 0.666992 -195 2v240h141c47.333 0 83.833 12.333 109.5 37s38.5 59.334 38.5 104.001
c0 11.333 -2.66699 25 -8 41l-383 1010h313l242 -719l233 719h301z" />
    <glyph glyph-name="afii10086" unicode="&#x444;" horiz-adv-x="1732" 
d="M1659 545c0 -61.333 -4.50098 -119.166 -13.501 -173.499s-24.167 -106.333 -45.5 -156s-47.833 -92.334 -79.5 -128.001s-71.834 -64 -120.501 -85s-103.667 -31.5 -165 -31.5c-42 0 -83.667 9.83301 -125 29.5s-72.666 42.834 -93.999 69.501h-6v-445h-287v445h-6
c-21.333 -26.667 -52.666 -49.834 -93.999 -69.501s-83 -29.5 -125 -29.5c-61.333 0 -116.333 10.5 -165 31.5s-88.834 49.333 -120.501 85s-58.167 78.334 -79.5 128.001s-36.5 101.667 -45.5 156s-13.5 112.166 -13.5 173.499c0 166.667 36.667 298.667 110 396
s173 146 299 146c58 0 107.333 -10.333 148 -31s69.334 -46.334 86.001 -77.001h6v479h287v-479h6c16.667 30.667 45.167 56.334 85.5 77.001s89.5 31 147.5 31c126 0 225.833 -48.667 299.5 -146s110.5 -229.333 110.5 -396zM1372 539
c0 216.667 -65.334 324.998 -196.001 324.998c-35.333 0 -68.666 -9 -99.999 -27s-53.333 -46.333 -66 -85v-455c5.33301 -28 22.5 -52 51.5 -72s64.167 -30 105.5 -30c38.667 0 72 9.5 100 28.5s49.333 45.333 64 79s25.167 69.834 31.5 108.501s9.5 81.334 9.5 128.001z
M722.998 296.998l0.000976562 455.002c-12.667 38.667 -34.667 67 -66 85s-64.666 27 -99.999 27c-131.333 0 -197 -108.333 -197 -325c0 -46.667 3.16699 -89.334 9.5 -128.001s16.833 -74.834 31.5 -108.501s36 -60 64 -79s61.333 -28.5 100 -28.5
c41.333 0 76.666 10 105.999 30s46.666 44 51.999 72z" />
    <glyph glyph-name="afii10087" unicode="&#x445;" horiz-adv-x="1099" 
d="M1059 1057l-348 -494l391 -563h-332l-223 342l-221 -342h-330l385 557l-350 500h331l189 -283l186 283h322z" />
    <glyph glyph-name="afii10088" unicode="&#x446;" horiz-adv-x="1234" 
d="M1210 -311h-272v311h-829v1057h288v-834h391v834h289v-834h133v-534z" />
    <glyph glyph-name="afii10089" unicode="&#x447;" horiz-adv-x="1175" 
d="M774 618l0.000976562 438.999h289v-1057h-289v416c-127.333 -31.333 -240 -47 -338 -47c-114.667 0 -202.334 32.333 -263.001 97s-91 154.334 -91 269.001v322h289v-262c0 -78.667 11 -132.834 33 -162.501s64.667 -44.5 128 -44.5c33.333 0 76 3.33301 128 10
s90 13.334 114 20.001z" />
    <glyph glyph-name="afii10090" unicode="&#x448;" horiz-adv-x="1726" 
d="M1612 0h-1497v1057h288v-834h316v834h289v-834h315v834h289v-1057z" />
    <glyph glyph-name="afii10091" unicode="&#x449;" horiz-adv-x="1751" 
d="M109 0v1057h288v-834h310v834h288v-834h310v834h288v-834h133v-534h-272v311h-1345z" />
    <glyph glyph-name="afii10092" unicode="&#x44a;" horiz-adv-x="1327" 
d="M332 834l-316.001 0.000976562v223h602v-363h281c112 0 204.5 -30.167 277.5 -90.5s109.5 -145.5 109.5 -255.5c0 -112.667 -36.667 -198.834 -110 -258.501s-169.666 -89.5 -288.999 -89.5h-555v834zM617.999 498.001v-297h199c55.333 0 98.5 12.167 129.5 36.5
s46.5 61.166 46.5 110.499c0 48.667 -16.5 85.834 -49.5 111.501s-75.833 38.5 -128.5 38.5h-197z" />
    <glyph glyph-name="afii10093" unicode="&#x44b;" horiz-adv-x="1517" 
d="M1133 1057h288v-1057h-288v1057zM999 348c0 -112.667 -36.668 -198.833 -110.001 -258.5s-169.666 -89.5 -288.999 -89.5h-504v1057h287v-363h229c112 0 204.5 -30.167 277.5 -90.5s109.5 -145.5 109.5 -255.5zM382.999 498.001l0.000976562 -297h147
c55.333 0 98.666 12.167 129.999 36.5s47 61.166 47 110.499c0 48.667 -16.667 85.834 -50 111.501s-76.333 38.5 -129 38.5h-145z" />
    <glyph glyph-name="afii10094" unicode="&#x44c;" horiz-adv-x="1099" 
d="M1059 348c0 -112.667 -36.833 -198.833 -110.5 -258.5s-170.167 -89.5 -289.5 -89.5h-555v1057h287v-363h281c112 0 204.5 -30.167 277.5 -90.5s109.5 -145.5 109.5 -255.5zM391 498.001v-297h199c55.333 0 98.5 12.167 129.5 36.5s46.5 61.166 46.5 110.499
c0 48.667 -16.5 85.834 -49.5 111.501s-75.833 38.5 -128.5 38.5h-197z" />
    <glyph glyph-name="afii10095" unicode="&#x44d;" horiz-adv-x="1175" 
d="M1102 520c0 -165.333 -49.168 -297.834 -147.501 -397.501s-228.833 -149.5 -391.5 -149.5c-132.667 0 -242.5 34.333 -329.5 103s-142.833 165 -167.5 289h282c31.333 -113.333 103 -170 215 -170c68.667 0 123.834 22.5 165.501 67.5s67.167 109.167 76.5 192.5h-340
v184h334c-13.333 74 -41 131 -83 171s-95 60 -159 60c-52 0 -95.667 -13.667 -131 -41s-59.333 -66 -72 -116h-288c17.333 116 69.833 207.333 157.5 274s199.5 100 335.5 100c164 0 295.5 -51.667 394.5 -155s148.5 -240.666 148.5 -411.999z" />
    <glyph glyph-name="afii10096" unicode="&#x44e;" horiz-adv-x="1712" 
d="M606 451l-203.001 0.000976562v-451h-288v1057h288v-402h209c22 134 77.5 239.5 166.5 316.5s203.5 115.5 343.5 115.5c156.667 0 280.834 -50.833 372.501 -152.5s137.5 -237.167 137.5 -406.5c0 -170.667 -46 -306.834 -138 -408.501s-217.333 -152.5 -376 -152.5
c-148 0 -267 43.333 -357 130s-141.667 204.667 -155 354zM1341 530.001c0 106 -19.833 188.501 -59.5 247.501s-95.5 88.5 -167.5 88.5c-70 0 -124.333 -29.833 -163 -89.5s-58 -142.5 -58 -248.5c0 -108.667 19.5 -192.834 58.5 -252.501s94.5 -89.5 166.5 -89.5
c71.333 0 126.333 30.167 165 90.5s58 144.833 58 253.5z" />
    <glyph glyph-name="afii10097" unicode="&#x44f;" horiz-adv-x="1175" 
d="M1059 0l-289 -0.00195312v391h-123l-303 -391h-356l350 416c-77.333 12.667 -141.333 47.834 -192 105.501s-76 128.834 -76 213.501c0 93.333 32.833 170.333 98.5 231s149.5 91 251.5 91h639v-1057zM770 599.998l-0.000976562 248h-231c-64 0 -109 -10 -135 -30
s-39 -51 -39 -93c0 -43.333 12.833 -75 38.5 -95s70.834 -30 135.501 -30h231z" />
    <glyph glyph-name="afii10071" unicode="&#x451;" horiz-adv-x="1175" 
d="M940 1458v-237h-272v237h272zM510 1458v-237h-272v237h272zM1104 328c-32.667 -113.333 -93.168 -201.5 -181.501 -264.5s-193.166 -94.5 -314.499 -94.5c-162.667 0 -293.334 50.667 -392.001 152s-148 235 -148 401c0 164 50 299.167 150 405.5
s226.667 159.5 380 159.5c160 0 287 -54.333 381 -163s141 -255.667 141 -441v-28h-758c2 -90.667 24.333 -160.167 67 -208.5s103 -72.5 181 -72.5c52.667 0 96.334 12.333 131.001 37s62.667 63.667 84 117h279zM824.999 639c-6.66699 69.333 -29 126.333 -67 171
s-91.333 67 -160 67c-64.667 0 -118.167 -21.333 -160.5 -64s-67.5 -100.667 -75.5 -174h463z" />
    <glyph glyph-name="afii10099" unicode="&#x452;" horiz-adv-x="1175" 
d="M1104 176c0 -358.667 -199.332 -545.668 -597.999 -561.001v233c52.667 6 96.667 15.333 132 28s66.833 31.834 94.5 57.501s48 60 61 103s19.5 95.833 19.5 158.5v141c0 72.667 -13 128 -39 166s-75 57 -147 57c-37.333 0 -69.833 -5.83301 -97.5 -17.5
s-49.667 -26.667 -66 -45s-29.5 -41.5 -39.5 -69.5s-16.667 -55.667 -20 -83s-5 -58 -5 -92v-252h-286v891h-111v196h111v371h286v-371h508v-196h-508v-262c83.333 112 194.666 168 333.999 168c247.333 0 371 -130.333 371 -391v-230z" />
    <glyph glyph-name="afii10100" unicode="&#x453;" horiz-adv-x="927" 
d="M913 834h-510v-834h-288v1057h798v-223zM803 1483l-305 -293h-203l184 293h324z" />
    <glyph glyph-name="afii10101" unicode="&#x454;" horiz-adv-x="1175" 
d="M1110 365c-24.667 -124 -80.499 -220.332 -167.499 -288.999s-197.167 -103 -330.5 -103c-162.667 0 -293 49.833 -391 149.5s-147 232.167 -147 397.5c0 171.333 49.333 308.666 148 411.999s230 155 394 155c136 0 248 -33.333 336 -100s140.667 -158 158 -274h-289
c-12.667 50 -36.667 88.667 -72 116s-79 41 -131 41c-64 0 -116.833 -20 -158.5 -60s-69.167 -97 -82.5 -171h334v-184h-340c9.33301 -83.333 34.666 -147.5 75.999 -192.5s96.333 -67.5 165 -67.5c112 0 183.667 56.667 215 170h283z" />
    <glyph glyph-name="afii10102" unicode="&#x455;" horiz-adv-x="1099" 
d="M1004 750l-271.005 0.00390625c-8 53.333 -28.167 90.833 -60.5 112.5s-79.166 32.5 -140.499 32.5c-51.333 0 -91.333 -9.16699 -120 -27.5s-43 -43.833 -43 -76.5c0 -13.333 1.83301 -25.333 5.5 -36s10.834 -20 21.501 -28s20.834 -14.667 30.501 -20
s25.334 -11 47.001 -17s39.834 -10.667 54.501 -14s38 -8.33301 70 -15l29 -6c35.333 -7.33301 63.166 -13.333 83.499 -18s47 -12 80 -22s59.333 -20 79 -30s41.5 -23.333 65.5 -40s42.5 -34.667 55.5 -54s24.167 -43 33.5 -71s14 -58.667 14 -92
c0 -110.667 -43 -198.167 -129 -262.5s-204 -96.5 -354 -96.5c-68 0 -130.833 7 -188.5 21s-109.667 35.5 -156 64.5s-83 68.167 -110 117.5s-40.833 106.666 -41.5 171.999h277c9.33301 -117.333 84.333 -176 225 -176c59.333 0 106.333 11.833 141 35.5s52 55.5 52 95.5
c0 16.667 -3.5 31.5 -10.5 44.5s-15.667 23.667 -26 32s-25.833 16.166 -46.5 23.499s-40.5 13.5 -59.5 18.5s-44.833 11.167 -77.5 18.5c-8 2 -14 3.33301 -18 4c-106.667 24.667 -164.667 38 -174 40c-111.333 32 -186 79.333 -224 142c-24 39.333 -36 86.666 -36 141.999
c0 103.333 40.167 183 120.5 239s194.5 84 342.5 84c62.667 0 120.334 -6.16699 173.001 -18.5s100.5 -31.333 143.5 -57s77 -60.834 102 -105.501s38.5 -96.667 40.5 -156z" />
    <glyph glyph-name="afii10103" unicode="&#x456;" horiz-adv-x="528" 
d="M410 1458v-246h-291v246h291zM410 1057v-1057h-291v1057h291z" />
    <glyph glyph-name="afii10104" unicode="&#x457;" horiz-adv-x="528" 
d="M410 1057v-1057h-291v1057h291zM612 1458v-237h-272v237h272zM184 1458v-237h-272v237h272z" />
    <glyph glyph-name="afii10105" unicode="&#x458;" horiz-adv-x="569" 
d="M430 1057l-0.00390625 -1059c0 -70 -5.33301 -127.833 -16 -173.5s-29.167 -84.667 -55.5 -117s-62.166 -55.5 -107.499 -69.5s-103 -21 -173 -21c-38.667 0 -77.667 1.33301 -117 4v234c16.667 -1.33301 34.334 -2 53.001 -2c24.667 0 44.834 2.33301 60.501 7
s27.834 10 36.501 16s15.167 16.667 19.5 32s6.83301 29.166 7.5 41.499s1 31.166 1 56.499v1051h291zM429.996 1458v-250h-291v250h291z" />
    <glyph glyph-name="afii10106" unicode="&#x459;" horiz-adv-x="1683" 
d="M1645 338c0 -112 -36.499 -196.332 -109.499 -252.999s-169.833 -85 -290.5 -85h-485v834h-240l-12 -373c-1.33301 -32 -2.5 -57.167 -3.5 -75.5s-3 -43.166 -6 -74.499s-6.66699 -56.666 -11 -75.999s-10.833 -42.5 -19.5 -69.5s-18.5 -48.833 -29.5 -65.5
s-25 -34.334 -42 -53.001s-36.167 -33.167 -57.5 -43.5s-46.5 -19 -75.5 -26s-60.833 -10.5 -95.5 -10.5c-22.667 0 -51 2.16699 -85 6.5s-58.333 9.16602 -73 14.499v231c33.333 -6.66699 60.666 -10 81.999 -10c42.667 0 74.667 17.667 96 53s33 90.666 35 165.999l17 629
h809v-383h208c54 0 104 -6.83301 150 -20.5s87 -34 123 -61s64.167 -62.333 84.5 -106s30.5 -93.167 30.5 -148.5zM1352 338.001c0 87.333 -59.333 131 -178 131h-125v-262h125c58.667 0 103 9.66699 133 29s45 53.333 45 102z" />
    <glyph glyph-name="afii10107" unicode="&#x45a;" horiz-adv-x="1683" 
d="M750 469h-347v-469h-288v1057h288v-383h347v383h288v-383h219c54 0 104 -6.83301 150 -20.5s87 -34 123 -61s64.167 -62.333 84.5 -106s30.5 -93.167 30.5 -148.5c0 -112 -36.5 -196.333 -109.5 -253s-169.833 -85 -290.5 -85h-495v469zM1038 469v-262h136
c58.667 0 103 9.66699 133 29s45 53.333 45 102c0 87.333 -59.333 131 -178 131h-136z" />
    <glyph glyph-name="afii10108" unicode="&#x45b;" horiz-adv-x="1175" 
d="M1104 0h-290.999v336c0 72.667 -13 128 -39 166s-75 57 -147 57c-37.333 0 -69.833 -5.83301 -97.5 -17.5s-49.667 -26.667 -66 -45s-29.5 -41.5 -39.5 -69.5s-16.667 -55.667 -20 -83s-5 -58 -5 -92v-252h-286v891h-109v196h109v371h286v-371h510v-196h-510v-262
c83.333 112 194.666 168 333.999 168c247.333 0 371 -130.333 371 -391v-406z" />
    <glyph glyph-name="afii10109" unicode="&#x45c;" horiz-adv-x="1175" 
d="M967 1483l-305 -293h-203l184 293h324zM1190 0h-352l-306 449l-129 -132v-317h-284v1057h284v-418l388 418h342l-404 -408z" />
    <glyph glyph-name="afii10110" unicode="&#x45e;" horiz-adv-x="1062" 
d="M766 1458h115c0 -101.333 -29.5 -175.833 -88.5 -223.5s-140.833 -71.5 -245.5 -71.5s-186.5 23.833 -245.5 71.5s-88.5 122.167 -88.5 223.5h115c8.66699 -45.333 32.667 -79.166 72 -101.499s88.333 -33.5 147 -33.5s107.667 11.167 147 33.5s63.333 56.166 72 101.499
zM1071 1057l-389 -1053c-40.667 -109.333 -71.667 -182.666 -93 -219.999c-42 -72 -97.667 -119.333 -167 -142c-40 -12.667 -87.667 -19 -143 -19c-36 0 -101 0.666992 -195 2v240h141c47.333 0 83.833 12.333 109.5 37s38.5 59.334 38.5 104.001
c0 11.333 -2.66699 25 -8 41l-383 1010h313l242 -719l233 719h301z" />
    <glyph glyph-name="afii10193" unicode="&#x45f;" horiz-adv-x="1214" 
d="M1100 0h-355v-311h-274v311h-356v1057h288v-834h408v834h289v-1057z" />
    <glyph glyph-name="afii10050" unicode="&#x490;" horiz-adv-x="1175" 
d="M1159 1784v-598h-698v-1186h-320v1458h709v326h309z" />
    <glyph glyph-name="afii10098" unicode="&#x491;" horiz-adv-x="927" 
d="M913 1348v-514h-510v-834h-288v1057h524v291h274z" />
    <glyph glyph-name="endash" unicode="&#x2013;" horiz-adv-x="1024" 
d="M1024 686v-258h-1024v258h1024z" />
    <glyph glyph-name="emdash" unicode="&#x2014;" horiz-adv-x="2048" 
d="M2048 686v-258h-2048v258h2048z" />
    <glyph glyph-name="quoteleft" unicode="&#x2018;" horiz-adv-x="569" 
d="M446 799l-323 0.000976562v250c0 117.333 24.167 210.166 72.5 278.499s131.833 111.833 250.5 130.5v-143c-92.667 -26 -141 -91.667 -145 -197h145v-319z" />
    <glyph glyph-name="quoteright" unicode="&#x2019;" horiz-adv-x="569" 
d="M446 1208c0 -117.333 -24.167 -210.167 -72.5 -278.5s-131.833 -111.833 -250.5 -130.5v143c92.667 26 141 91.667 145 197h-145v319h323v-250z" />
    <glyph glyph-name="quotesinglbase" unicode="&#x201a;" horiz-adv-x="569" 
d="M446 319v-248.999c0 -117.333 -24.167 -210.333 -72.5 -279s-131.833 -112.334 -250.5 -131.001v143c92.667 26 141 91.667 145 197h-145v319h323z" />
    <glyph glyph-name="quotedblleft" unicode="&#x201c;" horiz-adv-x="948" 
d="M836 809l-292.999 -0.000976562v256c0 104 24.333 191.333 73 262s122 114.334 220 131.001v-135c-48.667 -14.667 -83.334 -38.5 -104.001 -71.5s-32 -76.167 -34 -129.5h138v-313zM401.001 808.999l-292 -0.000976562v256c0 104 24.167 191.333 72.5 262
s121.5 114.334 219.5 131.001v-135c-48.667 -14.667 -83.167 -38.5 -103.5 -71.5s-31.5 -76.167 -33.5 -129.5h137v-313z" />
    <glyph glyph-name="quotedblright" unicode="&#x201d;" horiz-adv-x="948" 
d="M840 1458v-255.999c0 -104 -24.333 -191.333 -73 -262s-122 -114.334 -220 -131.001v135c48.667 14.667 83.167 38.5 103.5 71.5s31.5 76.167 33.5 129.5h-137v313h293zM406 1458v-255.999c0 -104 -24.333 -191.333 -73 -262s-122 -114.334 -220 -131.001v135
c48.667 14.667 83.167 38.5 103.5 71.5s31.5 76.167 33.5 129.5h-137v313h293z" />
    <glyph glyph-name="quotedblbase" unicode="&#x201e;" horiz-adv-x="948" 
d="M838 315v-255.999c0 -104 -24.333 -191.333 -73 -262s-122 -114.334 -220 -131.001v135c48.667 14.667 83.167 38.5 103.5 71.5s31.5 76.167 33.5 129.5h-137v313h293zM403 315.001v-255.999c0 -104 -24.167 -191.333 -72.5 -262s-121.5 -114.334 -219.5 -131.001v135
c48.667 14.667 83.167 38.5 103.5 71.5s31.5 76.167 33.5 129.5h-137v313h292z" />
    <glyph glyph-name="dagger" unicode="&#x2020;" 
d="M1090 1059v-250h-381v-1145h-283v1145h-377v250h377v399h283v-399h381z" />
    <glyph glyph-name="daggerdbl" unicode="&#x2021;" 
d="M1090 1069v-242h-381v-532h381v-242h-381v-389h-281v389h-379v242h379v532h-379v242h379v389h281v-389h381z" />
    <glyph glyph-name="bullet" unicode="&#x2022;" horiz-adv-x="1026" 
d="M514 1094c100.667 0 186.667 -35.667 258 -107s107 -157.333 107 -258s-35.667 -186.5 -107 -257.5s-157.333 -106.5 -258 -106.5c-101.333 0 -187.333 35.5 -258 106.5s-106 156.833 -106 257.5s35.333 186.667 106 258s156.667 107 258 107z" />
    <glyph glyph-name="ellipsis" unicode="&#x2026;" horiz-adv-x="2048" 
d="M205 0v274h272v-274h-272zM887 0v274h272v-274h-272zM1569 0v274h272v-274h-272z" />
    <glyph glyph-name="perthousand" unicode="&#x2030;" horiz-adv-x="2349" 
d="M1343 1475l-897 -1532h-176l901 1532h172zM1202 674c93.333 0 165.498 -29.5 216.498 -88.5s76.5 -142.833 76.5 -251.5c0 -118 -25.167 -207.667 -75.5 -269s-124.166 -92 -221.499 -92s-171.5 29.5 -222.5 88.5s-76.5 144.833 -76.5 257.5
c0 115.333 25.833 203.333 77.5 264s126.834 91 225.501 91zM1911 676c94 0 166.668 -30.001 218.001 -90.001s77 -144.667 77 -254c0 -116 -25.5 -204.833 -76.5 -266.5s-124.5 -92.5 -220.5 -92.5c-97.333 0 -171.833 29.5 -223.5 88.5s-77.5 144.833 -77.5 257.5
c0 114.667 26.167 202.834 78.5 264.501s127.166 92.5 224.499 92.5zM441.999 1444c97.333 0 171.167 -29.832 221.5 -89.499s75.5 -147.167 75.5 -262.5c0 -110.667 -26.5 -196.834 -79.5 -258.501s-126.833 -92.5 -221.5 -92.5c-95.333 0 -168.333 30 -219 90
s-76 146.333 -76 259c0 114 25.667 201.5 77 262.5s125.333 91.5 222 91.5zM1198 541c-78 0 -117 -72.333 -117 -217c0 -76 9.33301 -130.833 28 -164.5s49 -50.5 91 -50.5c38 0 66 18.167 84 54.5s27 92.5 27 168.5c0 139.333 -37.667 209 -113 209zM1907 543
c-78 0 -116.999 -73.668 -116.999 -221.001c0 -142 39.667 -213 119 -213c74.667 0 112 73.667 112 221c0 72.667 -9.33301 126.334 -28 161.001s-47.334 52 -86.001 52zM438.001 1311c-74.667 0 -112 -76.668 -112 -230.001c0 -136 38 -204 114 -204
c75.333 0 113 73.667 113 221c0 72.667 -9.16699 126.334 -27.5 161.001s-47.5 52 -87.5 52z" />
    <glyph glyph-name="guilsinglleft" unicode="&#x2039;" horiz-adv-x="493" 
d="M395 928v-244l-182 -141l182 -144v-247l-319 256v270z" />
    <glyph glyph-name="guilsinglright" unicode="&#x203a;" horiz-adv-x="493" 
d="M96 932l322 -254v-275l-322 -247v239l183 146l-183 143v248z" />
    <glyph glyph-name="afii61352" unicode="&#x2116;" horiz-adv-x="2142" 
d="M1729 926c100.667 0 181 -29.999 241 -89.999s90 -140 90 -240c0 -100.667 -30.333 -181.167 -91 -241.5s-141.667 -90.5 -243 -90.5s-182.5 30.167 -243.5 90.5s-91.5 140.833 -91.5 241.5c0 99.333 31 179.166 93 239.499s143.667 90.5 245 90.5zM141 0.000976562v1421
h326l498 -899v899h307v-1421h-320l-501 901v-901h-310zM2046 201.001v-201h-616v201h616zM1593 596.001c0 -59.333 11.667 -104.168 35 -134.501s56 -45.5 98 -45.5c41.333 0 74 15.333 98 46s36 75.334 36 134.001c0 58 -12.333 102.167 -37 132.5s-57.667 45.5 -99 45.5
c-40 0 -71.833 -15.333 -95.5 -46s-35.5 -74.667 -35.5 -132z" />
    <glyph glyph-name="trademark" unicode="&#x2122;" horiz-adv-x="2048" 
d="M442 729v590h-223v139h615v-139h-220v-590h-172zM930 729v729h246l178 -502l178 502h242v-729h-158v594l-207 -594h-115l-207 594v-594h-157z" />
    <glyph glyph-name="radical" unicode="&#x221a;" horiz-adv-x="1228" 
d="M1194 1610l-434 -2048h-268l-316 653l-100 -47l-82 174l323 133l271 -575l350 1710h256z" />
    <glyph glyph-name="infinity" unicode="&#x221e;" horiz-adv-x="1650" 
d="M1559 537c0 -108.667 -31.1631 -196.665 -93.4961 -263.998s-143.833 -101 -244.5 -101c-33.333 0 -66 4.5 -98 13.5s-59.833 19.667 -83.5 32s-49.834 30 -78.501 53s-51.334 42.833 -68.001 59.5l-68 69c-68 -68 -116 -113 -144 -135
c-77.333 -60 -160.333 -90 -249 -90c-100.667 0 -182.834 33.167 -246.501 99.5s-95.5 152.5 -95.5 258.5c0 106.667 31.167 193.5 93.5 260.5s143.166 100.5 242.499 100.5c42 0 82 -6.33301 120 -19s73.833 -31.5 107.5 -56.5s63 -49.833 88 -74.5
s52.833 -55.334 83.5 -92.001l66 73c17.333 18.667 40 40.167 68 64.5s54 43.166 78 56.499s52.167 25 84.5 35s65.5 15 99.5 15c100 0 181.333 -33.167 244 -99.5s94 -152.5 94 -258.5zM1366 530.002c0 48 -13.498 86.666 -40.498 115.999s-62.5 44 -106.5 44
c-28.667 0 -59.834 -9.33301 -93.501 -28s-61.834 -38.167 -84.501 -58.5s-49.334 -46.166 -80.001 -77.499c32 -31.333 58.833 -56 80.5 -74s49.334 -35.333 83.001 -52s66.5 -25 98.5 -25c43.333 0 78 14.167 104 42.5s39 65.833 39 112.5zM690.006 528.001
c-32 30.667 -59.502 55.834 -82.502 75.501s-51.667 38.667 -86 57s-66.166 27.5 -95.499 27.5c-41.333 0 -75.5 -14.833 -102.5 -44.5s-40.5 -67.5 -40.5 -113.5c0 -46.667 13.5 -83.834 40.5 -111.501s63.167 -41.5 108.5 -41.5c42 0 86.333 14.667 133 44
s88.334 65 125.001 107z" />
    <glyph glyph-name="approxequal" unicode="&#x2248;" horiz-adv-x="1228" 
d="M858 143c-29.333 0 -64.8301 4.83984 -106.497 14.5068s-76.834 19.167 -105.501 28.5s-69.167 23.5 -121.5 42.5l-98.5 35.5c-43.333 14 -74 21 -92 21c-36 0 -64.333 -14.333 -85 -43s-34.667 -62.334 -42 -101.001h-154c2.66699 36 8 70.167 16 102.5
s19.833 64.666 35.5 96.999s34.5 60.166 56.5 83.499s49.667 42.166 83 56.499s70.666 21.5 111.999 21.5c22 0 46.333 -2.66699 73 -8s48 -10.333 64 -15s40.667 -12.834 74 -24.501l64 -22.5c2.66699 -0.666992 14.834 -4.83398 36.501 -12.501s37 -12.834 46 -15.501
l44 -13.5c20.333 -6.33301 36.666 -10.833 48.999 -13.5s26.333 -5.33398 42 -8.00098s29.167 -4 40.5 -4c67.333 0 109 45.667 125 137h153c-4.66699 -48.667 -13.334 -93.167 -26.001 -133.5s-30.667 -78.166 -54 -113.499s-54.5 -62.833 -93.5 -82.5
s-84.167 -29.5 -135.5 -29.5zM862.003 559.007c-29.333 0 -64.8301 4.83691 -106.497 14.5039s-76.834 19.167 -105.501 28.5s-69.167 23.5 -121.5 42.5l-98.5 35.5c-41.333 13.333 -72 20 -92 20c-36 0 -64.333 -14.167 -85 -42.5s-34.667 -61.833 -42 -100.5h-154
c2.66699 36 8 70.167 16 102.5s19.833 64.666 35.5 96.999s34.5 60.166 56.5 83.499s49.667 42.166 83 56.499s70.666 21.5 111.999 21.5c22 0 46.333 -2.66699 73 -8s48 -10.333 64 -15s40.667 -12.834 74 -24.501l64 -22.5l43.5 -15c27 -9.33301 46.333 -15.833 58 -19.5
l51.5 -15.5c22.667 -6.66699 42.5 -11.334 59.5 -14.001s32.167 -4 45.5 -4c67.333 0 109 46 125 138h153c-4.66699 -48.667 -13.334 -93.167 -26.001 -133.5s-30.667 -78.166 -54 -113.499s-54.5 -62.833 -93.5 -82.5s-84.167 -29.5 -135.5 -29.5z" />
    <glyph glyph-name="notequal" unicode="&#x2260;" horiz-adv-x="1228" 
d="M1028 1085l-115 -225h234v-229h-350l-103 -199h453v-229h-569l-168 -334l-213 106l116 228h-231v229h348l100 199h-448v229h565l168 332z" />
    <glyph glyph-name="lessequal" unicode="&#x2264;" horiz-adv-x="1228" 
d="M82 559v209l1063 367v-240l-739 -231l739 -220v-239zM82 156h1063v-228h-1063v228z" />
    <glyph glyph-name="greaterequal" unicode="&#x2265;" horiz-adv-x="1228" 
d="M1145 559l-1063 -354v239l737 220l-737 231v240l1063 -367v-209zM1145 156v-228h-1063v228h1063z" />
    <glyph glyph-name=".null" horiz-adv-x="0" 
 />
    <glyph glyph-name="nonmarkingreturn" horiz-adv-x="682" 
 />
    <glyph glyph-name="hyphenminus" horiz-adv-x="833" 
d="M725 688v-260h-616v260h616z" />
  </font>
</defs>
</svg>
